<svg xmlns="http://www.w3.org/2000/svg" width="709.71" height="499.5" viewBox="0 0 709.71 499.5"><path d="M115.13,386.74l-2.15.61-6.5-5.28-1.19-4.33s-3.37.73-1.42,6.29,1.13,4.23,1.13,4.23-7,2-7.45,2.79c-.3.57,1.45,7.7,2.44,11.55a4.26,4.26,0,0,0,4.06,3.36,3,3,0,0,0,.79-.11c1.75-.49,10.33-4.46,10.33-4.46l3.7-1Z" fill="#ebebeb"/><polygon points="120.94 383.83 123.71 399.03 120.03 400.06 116.03 385.53 120.94 383.83" fill="#ebebeb"/><path d="M501.8,435.13v17.4h-2.87v1.88h2.87v11.65h53.73v-10.6h-4v-2.3h4v-3.47h1.77v-1.57h-2.1v-13Z" fill="#f5f5f5"/><polygon points="541.26 435.18 541.26 465.87 555.53 465.87 555.53 455.27 551.55 455.27 551.55 453.16 555.53 453.23 555.53 449.76 557.34 449.77 557.3 447.98 555.2 447.93 555.2 435.13 541.26 435.18" fill="#e0e0e0"/><path d="M542.28,454.16c0,.11-9.72.2-21.71.2s-21.72-.09-21.72-.2,9.72-.19,21.72-.19S542.28,454.06,542.28,454.16Z" fill="#e0e0e0"/><path d="M542.28,452.4c0,.1-9.72.19-21.71.19s-21.72-.09-21.72-.19,9.72-.2,21.72-.2S542.28,452.29,542.28,452.4Z" fill="#e0e0e0"/><path d="M545.07,447.64c0,.11-9.72.19-21.71.19s-21.72-.08-21.72-.19,9.72-.19,21.72-.19S545.07,447.53,545.07,447.64Z" fill="#e0e0e0"/><path d="M545.34,460.6c0,.11-9.72.2-21.72.2s-21.71-.09-21.71-.2,9.72-.19,21.71-.19S545.34,460.5,545.34,460.6Z" fill="#e0e0e0"/><rect x="588.6" y="414.45" width="11.98" height="14.39" fill="#f5f5f5"/><rect x="534.87" y="413.51" width="54.14" height="16.24" fill="#e0e0e0"/><path d="M601,414.88H587.56v-1.37H601a.68.68,0,0,1,.67.68h0A.68.68,0,0,1,601,414.88Z" fill="#e0e0e0"/><path d="M601,429.75H587.56v-1.37H601a.68.68,0,0,1,.67.69h0A.68.68,0,0,1,601,429.75Z" fill="#e0e0e0"/><rect x="578.36" y="413.51" width="6.4" height="16.24" fill="#ebebeb"/><rect x="540.02" y="413.69" width="6.4" height="16.24" fill="#ebebeb"/><path d="M600.58,416.83s-2.59.07-5.79.07-5.79,0-5.79-.07,2.59-.07,5.79-.07S600.58,416.79,600.58,416.83Z" fill="#e0e0e0"/><path d="M600.58,419s-2.59.07-5.79.07S589,419,589,419s2.59-.07,5.79-.07S600.58,419,600.58,419Z" fill="#e0e0e0"/><path d="M600.58,421.65s-2.59.07-5.79.07-5.79,0-5.79-.07,2.59-.07,5.79-.07S600.58,421.61,600.58,421.65Z" fill="#e0e0e0"/><path d="M600.58,424.31s-2.59.07-5.79.07-5.79,0-5.79-.07,2.59-.08,5.79-.08S600.58,424.27,600.58,424.31Z" fill="#e0e0e0"/><path d="M600.58,427s-2.59.08-5.79.08S589,427,589,427s2.59-.07,5.79-.07S600.58,426.92,600.58,427Z" fill="#e0e0e0"/><rect x="550.57" y="420.19" width="24.36" height="2.92" fill="#ebebeb"/><rect x="588.3" y="430.07" width="12.16" height="8.77" fill="#fafafa"/><rect x="536.67" y="429.75" width="51.77" height="9.41" fill="#f5f5f5"/><path d="M588.06,430.39h13.07a.33.33,0,0,0,.32-.32h0a.32.32,0,0,0-.32-.32H588.06Z" fill="#f5f5f5"/><path d="M588.06,439.16h13.07a.32.32,0,0,0,.32-.32h0a.32.32,0,0,0-.32-.32H588.06Z" fill="#f5f5f5"/><path d="M600.46,431.73s-2.69.08-6,.08-6,0-6-.08,2.69-.07,6-.07S600.46,431.69,600.46,431.73Z" fill="#e0e0e0"/><path d="M600.46,433.39s-2.69.08-6,.08-6,0-6-.08,2.69-.07,6-.07S600.46,433.35,600.46,433.39Z" fill="#e0e0e0"/><path d="M600.46,435.05s-2.69.08-6,.08-6,0-6-.08,2.69-.07,6-.07S600.46,435,600.46,435.05Z" fill="#e0e0e0"/><path d="M600.46,436.71s-2.69.07-6,.07-6,0-6-.07,2.69-.07,6-.07S600.46,436.67,600.46,436.71Z" fill="#e0e0e0"/><rect x="589.89" y="439.99" width="12.42" height="23.78" fill="#ebebeb"/><rect x="531.61" y="439.16" width="58.28" height="25.78" fill="#e0e0e0"/><path d="M603.28,464.94h-15v-1.67h15a.83.83,0,0,1,.82.83h0A.83.83,0,0,1,603.28,464.94Z" fill="#e0e0e0"/><path d="M603.28,440.83h-15v-1.67h15a.83.83,0,0,1,.82.83h0A.83.83,0,0,1,603.28,440.83Z" fill="#e0e0e0"/><path d="M602.31,443.18s-2.78.07-6.21.07-6.21,0-6.21-.07,2.78-.07,6.21-.07S602.31,443.14,602.31,443.18Z" fill="#e0e0e0"/><path d="M602.31,446.23s-2.78.07-6.21.07-6.21,0-6.21-.07,2.78-.07,6.21-.07S602.31,446.19,602.31,446.23Z" fill="#e0e0e0"/><path d="M602.31,449.28s-2.78.07-6.21.07-6.21,0-6.21-.07,2.78-.07,6.21-.07S602.31,449.24,602.31,449.28Z" fill="#e0e0e0"/><path d="M602.31,452.33s-2.78.07-6.21.07-6.21,0-6.21-.07,2.78-.07,6.21-.07S602.31,452.29,602.31,452.33Z" fill="#e0e0e0"/><path d="M602.31,455.38s-2.78.07-6.21.07-6.21,0-6.21-.07,2.78-.07,6.21-.07S602.31,455.34,602.31,455.38Z" fill="#e0e0e0"/><path d="M602.31,458.43s-2.78.07-6.21.07-6.21,0-6.21-.07,2.78-.07,6.21-.07S602.31,458.39,602.31,458.43Z" fill="#e0e0e0"/><path d="M602.31,461.48s-2.78.07-6.21.07-6.21,0-6.21-.07,2.78-.07,6.21-.07S602.31,461.44,602.31,461.48Z" fill="#e0e0e0"/><g opacity="0.31"><path d="M551.55,453.46v1.43c0,1.73-.85,2.72-2.5,2.72s-2.5-1-2.5-2.72v-5.61c0-1.73.85-2.72,2.5-2.72s2.5,1,2.5,2.72v1.05H550v-1.16c0-.77-.34-1.06-.87-1.06s-.87.29-.87,1.06V455c0,.77.33,1.05.87,1.05s.87-.28.87-1.05v-1.54Z" fill="#3a376f"/></g><g opacity="0.31"><path d="M552.44,449.28c0-1.73.9-2.72,2.55-2.72s2.54,1,2.54,2.72v5.61c0,1.73-.9,2.72-2.54,2.72s-2.55-1-2.55-2.72Zm1.68,5.72c0,.77.33,1.07.87,1.07s.87-.3.87-1.07v-5.83c0-.77-.34-1.06-.87-1.06s-.87.29-.87,1.06Z" fill="#3a376f"/></g><g opacity="0.31"><path d="M558.62,446.69h1.67v9.25h2.77v1.54h-4.44Z" fill="#3a376f"/></g><g opacity="0.31"><path d="M563.65,449.28c0-1.73.9-2.72,2.55-2.72s2.55,1,2.55,2.72v5.61c0,1.73-.9,2.72-2.55,2.72s-2.55-1-2.55-2.72Zm1.68,5.72c0,.77.34,1.07.87,1.07s.87-.3.87-1.07v-5.83c0-.77-.34-1.06-.87-1.06s-.87.29-.87,1.06Z" fill="#3a376f"/></g><g opacity="0.31"><path d="M571.43,446.69V455c0,.77.34,1.05.87,1.05s.87-.28.87-1.05v-8.33h1.59v8.22c0,1.73-.85,2.71-2.5,2.71s-2.51-1-2.51-2.71v-8.22Z" fill="#3a376f"/></g><g opacity="0.31"><path d="M579.41,457.48a3.33,3.33,0,0,1-.15-1.32v-1.7c0-1-.33-1.37-1.1-1.37h-.58v4.39H575.9V446.69h2.54c1.74,0,2.48.81,2.48,2.48V450a2.17,2.17,0,0,1-1.09,2.19c.83.35,1.11,1.17,1.11,2.3v1.66a3.16,3.16,0,0,0,.18,1.31Zm-1.83-9.25v3.32h.66c.62,0,1-.28,1-1.15v-1.06c0-.77-.26-1.11-.86-1.11Z" fill="#3a376f"/></g><path d="M551.19,433.46H550l.06-.33h2.81l-.07.33h-1.22l-.63,3.18h-.36Z" fill="#e0e0e0"/><path d="M555.2,434l-1.91,3c-.32.5-.56.66-.94.66a.85.85,0,0,1-.62-.24l.19-.26a.61.61,0,0,0,.46.19c.23,0,.4-.1.6-.42l.19-.28-.65-2.62h.35l.54,2.24,1.43-2.24Z" fill="#e0e0e0"/><path d="M558.1,435.1a1.49,1.49,0,0,1-1.48,1.57,1,1,0,0,1-1-.58l-.3,1.52H555l.71-3.6H556l-.08.42a1.31,1.31,0,0,1,1-.44A1.06,1.06,0,0,1,558.1,435.1Zm-.36,0a.76.76,0,0,0-.86-.82,1.14,1.14,0,0,0-1.12,1.23.76.76,0,0,0,.85.82A1.15,1.15,0,0,0,557.74,435.12Z" fill="#e0e0e0"/><path d="M558.51,435.55A1.48,1.48,0,0,1,560,434a1.07,1.07,0,0,1,1.19,1.11,1.49,1.49,0,0,1-1.51,1.57A1.08,1.08,0,0,1,558.51,435.55Zm2.33-.43a.76.76,0,0,0-.85-.82,1.15,1.15,0,0,0-1.13,1.23.76.76,0,0,0,.85.82A1.15,1.15,0,0,0,560.84,435.12Z" fill="#e0e0e0"/><path d="M564.57,434l-.46,2.31a1.39,1.39,0,0,1-1.51,1.32,1.63,1.63,0,0,1-1.16-.4l.21-.27a1.32,1.32,0,0,0,1,.35,1,1,0,0,0,1.13-.94l.06-.29a1.35,1.35,0,0,1-1,.45,1,1,0,0,1-1.15-1.06,1.44,1.44,0,0,1,1.49-1.49,1,1,0,0,1,1,.6l.11-.58Zm-.6,1.05c0-.48-.32-.76-.86-.76a1.11,1.11,0,0,0-1.13,1.16c0,.48.31.76.86.76A1.11,1.11,0,0,0,564,435.06Z" fill="#e0e0e0"/><path d="M566.87,434l-.07.34h-.1a1,1,0,0,0-1.05,1l-.26,1.34H565l.52-2.63h.34l-.09.48A1.16,1.16,0,0,1,566.87,434Z" fill="#e0e0e0"/><path d="M569.85,434l-.52,2.63H569l.08-.42a1.31,1.31,0,0,1-1,.45,1.06,1.06,0,0,1-1.14-1.12A1.48,1.48,0,0,1,568.4,434a1,1,0,0,1,1,.57l.11-.55Zm-.58,1.11a.76.76,0,0,0-.86-.82,1.15,1.15,0,0,0-1.13,1.23.76.76,0,0,0,.86.82A1.15,1.15,0,0,0,569.27,435.12Z" fill="#e0e0e0"/><path d="M573.24,435.1a1.49,1.49,0,0,1-1.48,1.57,1,1,0,0,1-1-.58l-.3,1.52h-.35l.71-3.6h.34l-.09.42a1.33,1.33,0,0,1,1-.44A1.06,1.06,0,0,1,573.24,435.1Zm-.36,0a.76.76,0,0,0-.86-.82,1.14,1.14,0,0,0-1.12,1.23.76.76,0,0,0,.86.82A1.15,1.15,0,0,0,572.88,435.12Z" fill="#e0e0e0"/><path d="M576.39,434.84a1.53,1.53,0,0,1,0,.3l-.29,1.5h-.36l.3-1.5a1.12,1.12,0,0,0,0-.24c0-.38-.23-.59-.68-.59a1,1,0,0,0-1.06.92l-.28,1.41h-.35l.74-3.72h.35l-.3,1.48a1.29,1.29,0,0,1,1-.41A.82.82,0,0,1,576.39,434.84Z" fill="#e0e0e0"/><path d="M579.69,434l-1.91,3c-.32.5-.56.66-.94.66a.85.85,0,0,1-.62-.24l.19-.26a.59.59,0,0,0,.46.19c.22,0,.4-.1.6-.42l.18-.28L577,434h.35l.54,2.24,1.42-2.24Z" fill="#e0e0e0"/><path d="M170.24,247.87h0A28.37,28.37,0,0,1,142,219.34h0a28.37,28.37,0,0,1,28.22-28.52h0a28.38,28.38,0,0,1,28.23,28.52h0A28.38,28.38,0,0,1,170.24,247.87Z" fill="#ebebeb"/><path d="M170.24,201.16a18.19,18.19,0,1,0,18,18.19A18.09,18.09,0,0,0,170.24,201.16Zm0,3.16a14.7,14.7,0,0,1,9.07,3.14,18.19,18.19,0,0,1-7.48,5.58,70.34,70.34,0,0,0-5.23-8.24A14.59,14.59,0,0,1,170.24,204.32Zm-6.7,1.63a69.65,69.65,0,0,1,5.3,8.16,47.49,47.49,0,0,1-13,1.68A15.06,15.06,0,0,1,163.54,206Zm-8.16,13.39c0-.13,0-.25,0-.38a49.69,49.69,0,0,0,14.92-2c.35.72.68,1.45,1,2.17a23.21,23.21,0,0,0-12.5,9.82A15.07,15.07,0,0,1,155.38,219.34Zm14.86,15a14.67,14.67,0,0,1-9.12-3.19c2.95-4.68,6.72-7.73,11.39-9.13a59.77,59.77,0,0,1,3.07,11.3A14.58,14.58,0,0,1,170.24,234.37Zm8.25-2.54a62.2,62.2,0,0,0-2.87-10.45,29.48,29.48,0,0,1,9.29.3A15,15,0,0,1,178.49,231.83Zm-4.07-13.44c-.37-.86-.75-1.71-1.15-2.55a21.31,21.31,0,0,0,8.32-6.19,15.11,15.11,0,0,1,3.48,8.85A31.58,31.58,0,0,0,174.42,218.39Z" fill="#fff"/><path d="M76.21,184.58l-3.3,1.83-12.67-6.14-3.6-6.65s-5.26,2.51.06,10.87S60.16,191,60.16,191,49.38,197,49,198.47c-.28,1.05,5.3,12.06,8.38,18a7.16,7.16,0,0,0,7.94,3.94,5.07,5.07,0,0,0,1.25-.48c2.7-1.5,15.27-11.34,15.27-11.34l5.68-3.15Z" fill="#ebebeb"/><polygon points="84.64 177.54 94.95 201.42 89.32 204.54 77.23 182.24 84.64 177.54" fill="#ebebeb"/><ellipse cx="437.02" cy="84.5" rx="34.2" ry="34.57" fill="#f5f5f5"/><path d="M425.22,75.79c1.3-.11,2.47,1.34,2.63,3.23s-.77,3.51-2.07,3.62-2.47-1.34-2.62-3.23S423.93,75.9,425.22,75.79Z" fill="#e0e0e0"/><path d="M428.23,67c0,.3-2.89,0-6.09,1.25s-5.23,3.26-5.44,3,1.61-2.7,5.1-4S428.32,66.8,428.23,67Z" fill="#e0e0e0"/><path d="M447,75.34c-1.3-.06-2.42,1.44-2.5,3.33s.92,3.48,2.22,3.53,2.41-1.44,2.49-3.33S448.27,75.39,447,75.34Z" fill="#e0e0e0"/><path d="M443.6,66.72c-.09-.24,2.91-1.12,6.44,0s5.47,3.63,5.26,3.76-2.29-1.78-5.56-2.82S443.64,67,443.6,66.72Z" fill="#e0e0e0"/><path d="M453.9,84.15a5.72,5.72,0,0,1-.24,1.85,15.83,15.83,0,0,1-2,4.69,18.21,18.21,0,0,1-5.21,5.46,16.42,16.42,0,0,1-17.66.92,18.11,18.11,0,0,1-5.74-4.87,15.46,15.46,0,0,1-2.46-4.46,5.37,5.37,0,0,1-.43-1.82c.2-.09.74,2.61,3.42,5.83a18.59,18.59,0,0,0,5.63,4.52A15.94,15.94,0,0,0,446,95.38a18.25,18.25,0,0,0,5.14-5.07C453.43,86.82,453.68,84.08,453.9,84.15Z" fill="#e0e0e0"/><ellipse cx="660.83" cy="152.21" rx="20.06" ry="20.27" fill="#f5f5f5"/><path d="M653.91,147.11c.76-.07,1.45.78,1.54,1.89s-.45,2.06-1.21,2.12-1.45-.78-1.54-1.89S653.15,147.17,653.91,147.11Z" fill="#e0e0e0"/><path d="M655.68,142a24.7,24.7,0,0,0-3.58.74,23.63,23.63,0,0,0-3.18,1.78,6.27,6.27,0,0,1,6.76-2.52Z" fill="#e0e0e0"/><path d="M666.67,146.84c-.77,0-1.42.85-1.47,2s.54,2,1.3,2.07,1.42-.85,1.46-2S667.43,146.87,666.67,146.84Z" fill="#e0e0e0"/><path d="M664.69,141.79a6.23,6.23,0,0,1,6.86,2.23,24.57,24.57,0,0,0-3.26-1.65A22.67,22.67,0,0,0,664.69,141.79Z" fill="#e0e0e0"/><path d="M670.73,152a3.38,3.38,0,0,1-.14,1.08,9.16,9.16,0,0,1-1.17,2.76,10.64,10.64,0,0,1-3.06,3.2,9.63,9.63,0,0,1-10.35.54,10.82,10.82,0,0,1-3.37-2.86,9.24,9.24,0,0,1-1.44-2.62,3,3,0,0,1-.25-1.06,15.15,15.15,0,0,0,2,3.42,10.65,10.65,0,0,0,3.3,2.64,9.33,9.33,0,0,0,9.81-.51,10.93,10.93,0,0,0,3-3A15.36,15.36,0,0,0,670.73,152Z" fill="#e0e0e0"/><path d="M150.3,281.77l-2.13-.35-3.6-7.32.69-4.31s-3.26-.74-3.78,5-.71,4.19-.71,4.19-7-1.12-7.69-.61c-.49.38-1.82,7.38-2.5,11.18a4.19,4.19,0,0,0,2.22,4.63,2.88,2.88,0,0,0,.74.23c1.74.29,10.9.32,10.9.32l3.68.61Z" fill="#ebebeb"/><polygon points="156.6 281.6 152.91 296.13 149.26 295.52 151.59 281.08 156.6 281.6" fill="#ebebeb"/><path d="M623,63.2l-2.14-.36-3.59-7.32.69-4.3s-3.26-.75-3.78,5-.71,4.19-.71,4.19-7-1.12-7.69-.6c-.49.37-1.82,7.37-2.51,11.17a4.19,4.19,0,0,0,2.23,4.63,2.94,2.94,0,0,0,.73.23c1.75.29,10.9.32,10.9.32l3.69.61Z" fill="#ebebeb"/><polygon points="629.34 63.02 625.65 77.55 621.99 76.95 624.32 62.5 629.34 63.02" fill="#ebebeb"/><rect x="330.6" y="184.36" width="88.27" height="71.32" transform="translate(-1.15 1.97) rotate(-0.3)" fill="#fafafa"/><path d="M418.68,184.13h-.42l-1.24,0-4.8.06-18.07.15-63.73.46.22-.23c.12,21.23.26,45.56.4,71.32h0l-.25-.25,88.27-.43-.21.21c-.07-21.48-.13-39.28-.17-51.73,0-6.23,0-11.11,0-14.46,0-1.66,0-2.93,0-3.81s0-1.32,0-1.32,0,.42,0,1.27,0,2.13.05,3.78c0,3.33.07,8.2.13,14.41.09,12.48.22,30.33.38,51.86v.21h-.21l-88.27.51h-.26v-.25h0c-.12-25.75-.24-50.09-.35-71.32v-.23h.23l63.89-.23,18,0h6.36Z" fill="#263238"/><rect x="333.64" y="188.85" width="82.07" height="62.34" transform="translate(-1.18 2.02) rotate(-0.31)" fill="#ebebeb"/><polygon points="333.81 251.42 362.27 212.51 380.15 236.66 392.13 223.64 415.88 250.98 333.81 251.42" fill="#e0e0e0"/><path d="M387.54,207.63a6.47,6.47,0,1,1-6.5-6.5A6.49,6.49,0,0,1,387.54,207.63Z" fill="#e0e0e0"/><path d="M667.81,465.68c0,.14-136.26.25-304.31.25s-304.34-.11-304.34-.25,136.23-.26,304.34-.26S667.81,465.53,667.81,465.68Z" fill="#263238"/><path d="M173.92,416.91h0a24.2,24.2,0,0,1-24.08-24.33h0a24.2,24.2,0,0,1,24.08-24.33h0A24.2,24.2,0,0,1,198,392.57h0A24.2,24.2,0,0,1,173.92,416.91Z" fill="#fbd765"/><path d="M187.12,391.9a13,13,0,0,0-25.92-.24c0,.19,0,.38,0,.57a13,13,0,0,0,1.86,6.72l-2.34,7,7.18-2.31a13,13,0,0,0,19.23-11.39Zm-13,11.27a10.81,10.81,0,0,1-6-1.81L164,402.71l1.36-4.07a10.86,10.86,0,0,1-2.08-6.41,9.42,9.42,0,0,1,.06-1.06,10.89,10.89,0,0,1,21.71.21,7.94,7.94,0,0,1,0,.85A10.94,10.94,0,0,1,174.15,403.17Z" fill="#3a376f" fill-rule="evenodd"/><path d="M180.1,394.86c-.32-.16-1.88-.94-2.17-1s-.51-.16-.72.16-.83,1-1,1.25-.37.23-.69.08a8.74,8.74,0,0,1-2.56-1.59,9.36,9.36,0,0,1-1.76-2.2c-.19-.32,0-.49.14-.65s.31-.38.48-.56l.11-.15c.07-.12.13-.23.2-.38a.58.58,0,0,0,0-.56c-.08-.16-.72-1.73-1-2.37s-.52-.53-.71-.53-.4,0-.61,0a1.17,1.17,0,0,0-.85.4,3.59,3.59,0,0,0-1.11,2.66,4.42,4.42,0,0,0,.16,1.09,7.28,7.28,0,0,0,1.14,2.21c.16.21,2.2,3.53,5.43,4.82s3.23.84,3.81.79a3.17,3.17,0,0,0,2.15-1.52,2.82,2.82,0,0,0,.19-1.51C180.63,395.1,180.41,395,180.1,394.86Z" fill="#3a376f" fill-rule="evenodd"/><path d="M108.2,260.88h0a18.66,18.66,0,0,1-18.56-18.76h0a18.66,18.66,0,0,1,18.56-18.75h0a18.66,18.66,0,0,1,18.55,18.75h0A18.66,18.66,0,0,1,108.2,260.88Z" fill="#fbd765"/><path d="M102.26,243.87a.43.43,0,0,0,.63-.32l.26-1a.63.63,0,0,0-.18-.71,3.73,3.73,0,0,1-.84-2.51,6,6,0,0,1,6.23-6.13c3.4,0,5.27,2.1,5.27,4.9,0,3.69-1.61,6.81-4,6.81a2,2,0,0,1-2-2.47c.38-1.62,1.12-3.37,1.12-4.54A1.71,1.71,0,0,0,107,236c-1.35,0-2.44,1.42-2.44,3.31a5,5,0,0,0,.4,2s-1.38,5.93-1.63,7a14.37,14.37,0,0,0,0,4.86.17.17,0,0,0,.3.07,13.74,13.74,0,0,0,2.28-4.18c.16-.57.89-3.52.89-3.52a3.62,3.62,0,0,0,3.1,1.59c4.07,0,6.83-3.74,6.83-8.76,0-3.8-3.18-7.33-8-7.33-6,0-9,4.35-9,8C99.66,241.18,100.49,243.14,102.26,243.87Z" fill="#3a376f"/><path d="M85.9,350.47h0a25.55,25.55,0,0,1-25.41-25.68h0A25.55,25.55,0,0,1,85.9,299.11h0a25.55,25.55,0,0,1,25.41,25.68h0A25.55,25.55,0,0,1,85.9,350.47Z" fill="#3a376f"/><path d="M85.9,313.25c3.72,0,4.16,0,5.63.08a7.68,7.68,0,0,1,2.59.48,4.69,4.69,0,0,1,2.64,2.67,7.91,7.91,0,0,1,.48,2.62c.07,1.48.08,1.93.08,5.69s0,4.2-.08,5.69a7.78,7.78,0,0,1-.48,2.61,4.61,4.61,0,0,1-2.64,2.67,7.37,7.37,0,0,1-2.59.49c-1.47.07-1.91.08-5.63.08s-4.16,0-5.63-.08a7.3,7.3,0,0,1-2.58-.49,4.32,4.32,0,0,1-1.61-1.05,4.51,4.51,0,0,1-1-1.62,7.78,7.78,0,0,1-.48-2.61c-.06-1.49-.08-1.93-.08-5.69s0-4.21.08-5.69a7.91,7.91,0,0,1,.48-2.62,4.56,4.56,0,0,1,1-1.61,4.35,4.35,0,0,1,1.61-1.06,7.61,7.61,0,0,1,2.58-.48c1.47-.07,1.91-.08,5.63-.08m0-2.54c-3.78,0-4.26,0-5.74.08a10.08,10.08,0,0,0-3.38.66,6.79,6.79,0,0,0-2.47,1.62,6.86,6.86,0,0,0-1.61,2.5,10.28,10.28,0,0,0-.64,3.41c-.07,1.5-.09,2-.09,5.81s0,4.3.09,5.8A10.35,10.35,0,0,0,72.7,334a6.83,6.83,0,0,0,1.61,2.49,6.69,6.69,0,0,0,2.47,1.63,10.11,10.11,0,0,0,3.38.65c1.48.07,2,.09,5.74.09s4.26,0,5.75-.09a10.16,10.16,0,0,0,3.38-.65A7.24,7.24,0,0,0,99.1,334a10.32,10.32,0,0,0,.65-3.42c.07-1.5.08-2,.08-5.8s0-4.31-.08-5.81a10.25,10.25,0,0,0-.65-3.41,6.74,6.74,0,0,0-1.61-2.5A6.84,6.84,0,0,0,95,311.45a10.13,10.13,0,0,0-3.38-.66c-1.49-.07-2-.08-5.75-.08" fill="#ebebeb"/><path d="M85.9,317.56a7.23,7.23,0,1,0,7.16,7.23,7.19,7.19,0,0,0-7.16-7.23m0,11.92a4.69,4.69,0,1,1,4.65-4.69,4.67,4.67,0,0,1-4.65,4.69" fill="#ebebeb"/><path d="M95,317.27a1.67,1.67,0,1,1-1.67-1.69A1.68,1.68,0,0,1,95,317.27" fill="#ebebeb"/><path d="M147.82,185.9h0a15.39,15.39,0,0,1-15.3-15.47h0A15.39,15.39,0,0,1,147.82,155h0a15.39,15.39,0,0,1,15.3,15.47h0A15.39,15.39,0,0,1,147.82,185.9Z" fill="#3a376f"/><path d="M145.49,179.78h3.72v-9.43h2.6l.28-3.16h-2.88v-1.8c0-.74.15-1,.86-1h2v-3.28h-2.58c-2.77,0-4,1.23-4,3.59v2.52h-1.94v3.2h1.94Z" fill="#fff"/><ellipse cx="527.96" cy="92.25" rx="22.07" ry="22.3" fill="#fff"/><path d="M550,92.25s0-.49-.1-1.42a11.37,11.37,0,0,0-.19-1.71,16.2,16.2,0,0,0-.45-2.3,21.49,21.49,0,0,0-2.45-5.92,21.8,21.8,0,0,0-26.36-9.48,20.18,20.18,0,0,0-5.55,3,24.94,24.94,0,0,0-2.49,2.14,24.38,24.38,0,0,0-2.15,2.57,22.25,22.25,0,0,0,0,26.21,20.22,20.22,0,0,0,4.64,4.71,20.73,20.73,0,0,0,5.55,3,21.9,21.9,0,0,0,26.36-9.49,21.32,21.32,0,0,0,2.45-5.91,16.05,16.05,0,0,0,.45-2.31,11.23,11.23,0,0,0,.19-1.71c.05-.93.1-1.42.1-1.42s0,.49,0,1.43a10.85,10.85,0,0,1-.16,1.71,17.35,17.35,0,0,1-.43,2.32,21.54,21.54,0,0,1-2.42,6,22.3,22.3,0,0,1-5.6,6.38,21.91,21.91,0,0,1-21,3.26,20.81,20.81,0,0,1-5.62-3,23.38,23.38,0,0,1-2.52-2.16,25,25,0,0,1-2.18-2.6,22.51,22.51,0,0,1,0-26.52,26.08,26.08,0,0,1,2.18-2.6,26.89,26.89,0,0,1,2.52-2.16,21.06,21.06,0,0,1,5.62-3,22,22,0,0,1,11.65-1,21.72,21.72,0,0,1,9.32,4.21,22.29,22.29,0,0,1,5.6,6.37,21.42,21.42,0,0,1,2.41,6,16.28,16.28,0,0,1,.44,2.32,10.86,10.86,0,0,1,.16,1.72C550,91.76,550,92.25,550,92.25Z" fill="#263238"/><path d="M528,77.68a14.57,14.57,0,1,0,14.41,14.57A14.52,14.52,0,0,0,528,77.68Z" fill="none"/><path d="M528,77.68a11.21,11.21,0,0,1,3.55.34,14.4,14.4,0,0,1,8.09,5.28,14.64,14.64,0,0,1,2.78,6.21,15,15,0,0,1-.6,7.81,14.91,14.91,0,0,1-5.12,6.92,14.48,14.48,0,0,1-17.41,0,13.91,13.91,0,0,1-3.12-3.15,14.08,14.08,0,0,1-2-3.77,15,15,0,0,1-.61-7.81,14.77,14.77,0,0,1,2.79-6.21A14.42,14.42,0,0,1,524.41,78a11.34,11.34,0,0,1,3.55-.33,27.74,27.74,0,0,0-3.49.59,14.43,14.43,0,0,0-9.77,18.84,14.34,14.34,0,0,0,4.93,6.61,13.9,13.9,0,0,0,16.65,0,13.38,13.38,0,0,0,3-3,13.64,13.64,0,0,0,1.93-3.6,14.42,14.42,0,0,0-9.77-18.84A28.13,28.13,0,0,0,528,77.68Z" fill="#fbd765"/><path d="M528,87.63a4.63,4.63,0,1,0,4.57,4.62A4.6,4.6,0,0,0,528,87.63Z" fill="none"/><path d="M528,87.63a2.18,2.18,0,0,1,1.15,0,4.57,4.57,0,0,1,2.67,1.66,4.86,4.86,0,1,1-7.64,0,4.54,4.54,0,0,1,2.67-1.66,2.2,2.2,0,0,1,1.15,0c0,.06-.41.06-1.09.27a4.51,4.51,0,0,0-2.36,1.7,4.44,4.44,0,0,0-.57,4.12,4.26,4.26,0,0,0,8,0,4.41,4.41,0,0,0-.56-4.12A4.57,4.57,0,0,0,529,87.9C528.36,87.69,528,87.69,528,87.63Z" fill="#fbd765"/><path d="M504.44,108.33c7.63-5.38,15.89-10.7,23.52-16.08" fill="#3a376f"/><path d="M528,92.25c0,.06-5.2,3.71-11.69,8.15s-11.79,8-11.83,7.93,5.19-3.71,11.69-8.15S527.91,92.19,528,92.25Z" fill="#3a376f"/><path d="M507,106.77a13.18,13.18,0,0,1-2.73,0,13,13,0,0,1-2.71-.23,28.58,28.58,0,0,1,5.44.2Z" fill="#3a376f"/><path d="M506.11,110.39a6.4,6.4,0,0,1,.26-1.89,7.13,7.13,0,0,1,.53-1.83,14.13,14.13,0,0,1-.79,3.72Z" fill="#3a376f"/><path d="M507.44,110a7.24,7.24,0,0,1,.22-2,7.47,7.47,0,0,1,.47-1.92,7.3,7.3,0,0,1-.22,2A7.77,7.77,0,0,1,507.44,110Z" fill="#3a376f"/><path d="M504.31,105.19a6.71,6.71,0,0,1,1.89.31,7.63,7.63,0,0,1,1.84.57,6.76,6.76,0,0,1-1.9-.31A7.27,7.27,0,0,1,504.31,105.19Z" fill="#3a376f"/><path d="M619.88,209.81a1.71,1.71,0,0,1,.1.28,4.54,4.54,0,0,1,.11.85,6.6,6.6,0,0,1-.76,3.14,16.48,16.48,0,0,1-3.09,3.9c-1.31,1.39-2.78,3-4.38,4.63l-.13.15-.17-.13c-1.46-1.2-3-2.48-4.69-3.82s-3.54-2.75-4.52-5a5.26,5.26,0,0,1-.11-4.37,5.07,5.07,0,0,1,3.16-2.69,4.51,4.51,0,0,1,3.81.71,4.86,4.86,0,0,1,2,3l-.41,0a4.89,4.89,0,0,1,3.18-4,4.38,4.38,0,0,1,3.94.52,4.67,4.67,0,0,1,1.7,2,3.51,3.51,0,0,1,.22.65c0,.15,0,.23,0,.23s-.1-.3-.37-.82a4.73,4.73,0,0,0-1.72-1.8,4.15,4.15,0,0,0-3.69-.41,4.58,4.58,0,0,0-2.89,3.77l-.13,1.42-.28-1.4a4.46,4.46,0,0,0-1.85-2.71,4,4,0,0,0-3.42-.62,4.58,4.58,0,0,0-2.84,2.43,4.79,4.79,0,0,0,.11,4c.91,2.07,2.74,3.46,4.37,4.81l4.68,3.84-.3,0,4.43-4.57a16.78,16.78,0,0,0,3.11-3.76,6.83,6.83,0,0,0,.86-3C620,210.21,619.85,209.82,619.88,209.81Z" fill="#fbd765"/><path d="M595.23,197.15s0,.22,0,.61.06,1,.11,1.75c.08,1.54.21,3.78.37,6.65.31,5.77.76,14.07,1.3,24.3l-.19-.18,21.16-1.1.23,0v.23c.16,3.21.33,6.64.51,10.17l-.4-.15,9.54-10.68.07-.08h.1l23.2-1.18,7.12-.36-.24.27c-.57-11.78-1.12-23-1.63-33.32l.24.22L612.5,196.4l-12.69.58-3.39.14-.88,0h-.31l.28,0,.85-.06,3.34-.2,12.64-.7,44.42-2.36.23,0V194c.52,10.32,1.08,21.54,1.67,33.31l0,.26h-.25l-7.12.36-23.2,1.17.17-.08c-3.31,3.68-6.52,7.26-9.57,10.67l-.38.42,0-.57c-.17-3.53-.34-7-.5-10.17l.24.21-21.17,1h-.19v-.19c-.47-10.28-.85-18.62-1.12-24.42-.12-2.86-.21-5.09-.28-6.62,0-.74,0-1.31-.06-1.72S595.23,197.15,595.23,197.15Z" fill="#fbd765"/><path d="M630,212.69l-2.6.13.13,2.56-.62,0-.12-2.56-2.6.14,0-.6,2.6-.13-.13-2.57.61,0,.13,2.57,2.6-.13Z" fill="#3a376f"/><path d="M633.66,207.36l.47,9.66-.69,0-.45-9-2.34.12,0-.64Z" fill="#3a376f"/><path d="M636.32,212.07c-.15-3,1.3-5,3.5-5.09s3.83,1.69,4,4.71-1.3,5-3.5,5.09S636.47,215.09,636.32,212.07Zm6.78-.35c-.13-2.69-1.45-4.19-3.25-4.09s-3,1.71-2.84,4.4,1.46,4.19,3.26,4.1S643.24,214.42,643.1,211.72Z" fill="#3a376f"/><path d="M645.31,211.61c-.15-3,1.3-5,3.5-5.09s3.83,1.69,4,4.71-1.3,5-3.5,5.09S645.46,214.64,645.31,211.61Zm6.79-.34c-.14-2.69-1.46-4.19-3.26-4.1s-3,1.71-2.84,4.41,1.46,4.19,3.26,4.09S652.23,214,652.1,211.27Z" fill="#3a376f"/><rect x="604.57" y="124.31" width="6.66" height="26.81" fill="#fbd765"/><rect x="593.61" y="122.28" width="6.66" height="28.84" fill="#fbd765"/><rect x="582.99" y="125.85" width="6.66" height="25.27" fill="#fbd765"/><rect x="572.2" y="129.8" width="6.66" height="21.33" fill="#fbd765"/><path d="M616.29,151.22c0,.14-10.95.26-24.46.26s-24.46-.12-24.46-.26,11-.26,24.46-.26S616.29,151.08,616.29,151.22Z" fill="#3a376f"/><path d="M613.51,126s-.77-.08-2.14,0a12.48,12.48,0,0,0-5.47,1.67,11.8,11.8,0,0,0-3,2.53c-1,1.09-1.8,2.39-2.82,3.7a10.55,10.55,0,0,1-3.95,3.38,14.24,14.24,0,0,1-5.45,1.08c-1.89.07-3.73,0-5.49.06a24.92,24.92,0,0,0-5,.68,12.49,12.49,0,0,0-7.11,4.42,9.51,9.51,0,0,0-2,5.36,13.34,13.34,0,0,0,.2,2.13,5.75,5.75,0,0,1-.4-2.13,9.47,9.47,0,0,1,1.89-5.58,11.09,11.09,0,0,1,3-2.81A15.29,15.29,0,0,1,580,138.6a24.4,24.4,0,0,1,5.1-.73c1.79-.09,3.63,0,5.49-.07a13.73,13.73,0,0,0,5.26-1,10.28,10.28,0,0,0,3.8-3.22c1-1.27,1.87-2.58,2.86-3.68a11.91,11.91,0,0,1,3.19-2.57,12.23,12.23,0,0,1,5.65-1.55,10.52,10.52,0,0,1,1.59.09A2.17,2.17,0,0,1,613.51,126Z" fill="#3a376f"/><path d="M568.25,119.61c.14,0,.26,7.19.26,16.06s-.12,16.07-.26,16.07-.26-7.19-.26-16.07S568.11,119.61,568.25,119.61Z" fill="#3a376f"/><path d="M596.44,301.47a4.69,4.69,0,0,1-6.08,2.69A4.76,4.76,0,0,1,587.7,298a4.67,4.67,0,0,1,6.07-2.69A4.77,4.77,0,0,1,596.44,301.47Z" fill="#fbd765"/><path d="M612.09,297.47a4.67,4.67,0,0,1-6.07,2.69,4.75,4.75,0,0,1-2.67-6.14,4.68,4.68,0,0,1,6.08-2.69A4.75,4.75,0,0,1,612.09,297.47Z" fill="#fbd765"/><path d="M604.85,316.19a4.89,4.89,0,0,1-6.22,3.08,5,5,0,0,1-2.51-6.53,4.88,4.88,0,0,1,6.22-3.08A5,5,0,0,1,604.85,316.19Z" fill="#fbd765"/><path d="M599.42,313.38c-.3.21-2.56-2.61-5-6.29s-4.27-6.83-4-7,2.55,2.62,5,6.3S599.71,313.18,599.42,313.38Z" fill="#fbd765"/><path d="M606.93,295.07c.1.35-3,1.56-6.83,2.71s-7.09,1.79-7.19,1.45,3-1.56,6.83-2.71S606.83,294.73,606.93,295.07Z" fill="#fbd765"/><path d="M538.83,345.06a4.67,4.67,0,0,1-.13-1.16,10.65,10.65,0,0,0-.16-1.38,12.82,12.82,0,0,0-.36-1.86,17.36,17.36,0,0,0-1.91-4.8,18.13,18.13,0,0,0-4.41-5.13,17.46,17.46,0,0,0-16.56-2.87,16.25,16.25,0,0,0-4.47,2.31,19.78,19.78,0,0,0-2,1.65,21,21,0,0,0-1.75,2,17.76,17.76,0,0,0-.51,20.88,16.26,16.26,0,0,0,3.6,3.85,16.46,16.46,0,0,0,4.37,2.53,17.64,17.64,0,0,0,21.32-7,17.41,17.41,0,0,0,2.14-4.69,13.92,13.92,0,0,0,.45-1.84,8.79,8.79,0,0,0,.22-1.38,4.62,4.62,0,0,1,.19-1.14,6,6,0,0,1,0,1.16,7.83,7.83,0,0,1-.13,1.41,12.59,12.59,0,0,1-.37,1.9,17.12,17.12,0,0,1-2,4.88,18.08,18.08,0,0,1-22.13,7.53,17,17,0,0,1-4.61-2.63,22.11,22.11,0,0,1-2.05-1.84,20.94,20.94,0,0,1-1.76-2.2,18.69,18.69,0,0,1,.53-22,22.09,22.09,0,0,1,1.86-2.11,23.13,23.13,0,0,1,2.14-1.73A17.2,17.2,0,0,1,515,327a18.16,18.16,0,0,1,21.74,8.61,17.19,17.19,0,0,1,1.81,5,12.82,12.82,0,0,1,.27,1.91,7.22,7.22,0,0,1,.06,1.42A5.79,5.79,0,0,1,538.83,345.06Z" fill="#fbd765"/><path d="M535.23,333.72s-.28.34-.91.81l-1.15.84c-.23.15-.47.33-.74.5l-.88.47A20.18,20.18,0,0,1,521,339l-1.6-.07-1.54-.25c-.25,0-.5-.07-.74-.12l-.72-.2c-.47-.13-.94-.24-1.38-.38a23.53,23.53,0,0,1-4.48-2.09c-2.41-1.47-3.58-2.81-3.49-2.9s1.41,1,3.83,2.28a27.06,27.06,0,0,0,4.41,1.83c.43.12.88.22,1.34.34l.68.17.72.11,1.46.22L521,338a21.75,21.75,0,0,0,10.22-2.32l.9-.39.76-.44,1.22-.68C534.79,333.84,535.19,333.66,535.23,333.72Z" fill="#fbd765"/><path d="M506.5,355.79c0-.06.28-.34.91-.81l1.15-.84c.23-.16.47-.34.74-.51l.88-.46a20,20,0,0,1,10.56-2.69l1.6.07,1.53.24.75.13.72.19c.47.13.93.25,1.38.39a22.93,22.93,0,0,1,4.48,2.09c2.4,1.47,3.58,2.8,3.48,2.89s-1.4-1-3.83-2.28a26.37,26.37,0,0,0-4.41-1.82c-.43-.13-.87-.23-1.33-.34l-.69-.18-.71-.1-1.47-.22-1.52-.06a21.55,21.55,0,0,0-10.23,2.32l-.89.39c-.27.14-.52.3-.76.43l-1.22.68C506.93,355.67,506.54,355.84,506.5,355.79Z" fill="#fbd765"/><path d="M538.81,345.48c0,.28-8,.3-18,.06s-18-.67-18-.94,8.05-.3,18-.06S538.82,345.2,538.81,345.48Z" fill="#fbd765"/><path d="M520,362.75c-.27,0-.3-8.14-.06-18.15s.66-18.14.93-18.14.3,8.14.06,18.16S520.3,362.76,520,362.75Z" fill="#fbd765"/><path d="M520,362.72c-.07.11-2-1.25-4.33-4.32a24.1,24.1,0,0,1-3.21-5.89,22.13,22.13,0,0,1-1.39-8.13,21.06,21.06,0,0,1,1.81-8.05,25.14,25.14,0,0,1,3.51-5.71c2.42-3,4.41-4.27,4.48-4.16s-1.71,1.6-3.93,4.59a27.23,27.23,0,0,0-3.22,5.64,21.1,21.1,0,0,0-1.66,7.71,22.32,22.32,0,0,0,1.25,7.8,26.44,26.44,0,0,0,2.93,5.79C518.35,361.09,520.13,362.61,520,362.72Z" fill="#fbd765"/><path d="M521.3,326.47c.07-.11,2.05,1.25,4.33,4.32a24.1,24.1,0,0,1,3.21,5.89,21.92,21.92,0,0,1,1.39,8.13,21,21,0,0,1-1.81,8.06,24.93,24.93,0,0,1-3.51,5.7c-2.42,3-4.41,4.27-4.48,4.16s1.71-1.6,3.93-4.59a27.24,27.24,0,0,0,3.23-5.64,21.1,21.1,0,0,0,1.66-7.71A22.55,22.55,0,0,0,528,337a26.44,26.44,0,0,0-2.93-5.79C523,328.1,521.2,326.58,521.3,326.47Z" fill="#fbd765"/><path d="M509.37,184.75a7.49,7.49,0,0,1-2.33.84,7.07,7.07,0,0,1-2.41.49,5.36,5.36,0,0,1,2.28-1A5.15,5.15,0,0,1,509.37,184.75Z" fill="#3a376f"/><path d="M519.14,183.91a6.79,6.79,0,0,1-2.45.24,7,7,0,0,1-2.46-.12,5.34,5.34,0,0,1,2.45-.39A5.24,5.24,0,0,1,519.14,183.91Z" fill="#3a376f"/><path d="M528.86,185.4a7,7,0,0,1-2.45-.33,6.77,6.77,0,0,1-2.37-.7,5.5,5.5,0,0,1,2.48.19A5.44,5.44,0,0,1,528.86,185.4Z" fill="#3a376f"/><path d="M538,189.07a7.42,7.42,0,0,1-2.31-.88,7,7,0,0,1-2.15-1.23,5.43,5.43,0,0,1,2.37.76C537.13,188.3,538.05,188.94,538,189.07Z" fill="#3a376f"/><path d="M546,194.79c-.1.11-1-.56-2-1.41s-1.88-1.58-1.8-1.7a5.48,5.48,0,0,1,2.13,1.3C545.35,193.84,546.09,194.69,546,194.79Z" fill="#3a376f"/><path d="M520.45,130.67c-.14,0-.21-.58-.15-1.26s.22-1.23.36-1.22.21.58.15,1.26S520.6,130.68,520.45,130.67Z" fill="#3a376f"/><path d="M519.61,140.91a6.77,6.77,0,0,1-.05-2.58,6.64,6.64,0,0,1,.47-2.54,12.78,12.78,0,0,1-.42,5.12Z" fill="#3a376f"/><path d="M518.75,151.16a13.06,13.06,0,0,1,.43-5.13,13.06,13.06,0,0,1-.43,5.13Z" fill="#3a376f"/><path d="M517.88,161.4a6.66,6.66,0,0,1,0-2.58,6.38,6.38,0,0,1,.48-2.54,6.78,6.78,0,0,1,0,2.58A6.7,6.7,0,0,1,517.88,161.4Z" fill="#3a376f"/><path d="M517,171.64a13.3,13.3,0,0,1,.46-5.12,6.84,6.84,0,0,1,0,2.59A6.62,6.62,0,0,1,517,171.64Z" fill="#3a376f"/><path d="M516.2,179.22c-.14,0-.19-.6-.11-1.27s.26-1.21.4-1.19.19.58.11,1.27S516.34,179.25,516.2,179.22Z" fill="#3a376f"/><path d="M546.53,183.44a6.22,6.22,0,0,1-1.29,2.13c-.82,1.09-1.58,1.91-1.69,1.82a6.12,6.12,0,0,1,1.29-2.13C545.66,184.16,546.42,183.35,546.53,183.44Z" fill="#3a376f"/><path d="M552.49,175.53a6.09,6.09,0,0,1-1.28,2.13c-.83,1.09-1.59,1.91-1.7,1.82a6.31,6.31,0,0,1,1.29-2.13C551.62,176.25,552.38,175.44,552.49,175.53Z" fill="#3a376f"/><path d="M558.46,167.62a6.42,6.42,0,0,1-1.29,2.13c-.82,1.09-1.58,1.91-1.69,1.82s.46-1,1.28-2.13S558.35,167.53,558.46,167.62Z" fill="#3a376f"/><path d="M564.42,159.71a6.22,6.22,0,0,1-1.29,2.13c-.82,1.09-1.58,1.91-1.69,1.82a6.22,6.22,0,0,1,1.29-2.13C563.55,160.44,564.31,159.62,564.42,159.71Z" fill="#3a376f"/><path d="M564.88,216a7.61,7.61,0,0,1-1.23-2.16,7.08,7.08,0,0,1-.91-2.31c.12-.08.78.84,1.37,2.08A5.45,5.45,0,0,1,564.88,216Z" fill="#3a376f"/><path d="M567.41,225.56a17.36,17.36,0,0,1-1-4.87,9.47,9.47,0,0,1,1,4.87Z" fill="#3a376f"/><path d="M567.73,235.48a6.37,6.37,0,0,1-.2-2.49,6.52,6.52,0,0,1,.3-2.48A5.92,5.92,0,0,1,568,233,6,6,0,0,1,567.73,235.48Z" fill="#3a376f"/><path d="M566.11,245.28a6.63,6.63,0,0,1,.27-2.49,6.32,6.32,0,0,1,.77-2.37,12.24,12.24,0,0,1-1,4.86Z" fill="#3a376f"/><path d="M562.8,254.63a6.28,6.28,0,0,1,.69-2.4,6.36,6.36,0,0,1,1.16-2.2,6,6,0,0,1-.69,2.4A6.12,6.12,0,0,1,562.8,254.63Z" fill="#3a376f"/><path d="M558,263.27A6.2,6.2,0,0,1,559,261c.71-1.16,1.39-2,1.52-2a6.36,6.36,0,0,1-1.09,2.24C558.75,262.47,558.06,263.36,558,263.27Z" fill="#3a376f"/><path d="M551.61,270.86c-.1-.11.57-1,1.49-2s1.77-1.72,1.87-1.63-.56,1-1.49,2S551.71,271,551.61,270.86Z" fill="#3a376f"/><path d="M543.84,276.94c-.07-.12.76-.85,1.87-1.63a6.23,6.23,0,0,1,2.17-1.21c.09.11-.75.84-1.87,1.63A6.2,6.2,0,0,1,543.84,276.94Z" fill="#3a376f"/><path d="M535,281.35a6,6,0,0,1,2.15-1.24,6.17,6.17,0,0,1,2.36-.75c.07.13-.9.68-2.15,1.23A6.23,6.23,0,0,1,535,281.35Z" fill="#3a376f"/><path d="M525.55,284a6.32,6.32,0,0,1,2.34-.79,6.15,6.15,0,0,1,2.46-.28,6.18,6.18,0,0,1-2.35.79A5.72,5.72,0,0,1,525.55,284Z" fill="#3a376f"/><path d="M515.75,284.68a11.51,11.51,0,0,1,4.91-.11,11.95,11.95,0,0,1-4.91.11Z" fill="#3a376f"/><path d="M506,283.35a6.24,6.24,0,0,1,2.47.21,6,6,0,0,1,2.36.72,6,6,0,0,1-2.46-.21A6.09,6.09,0,0,1,506,283.35Z" fill="#3a376f"/><path d="M571.53,224.17a11.77,11.77,0,0,1-4.92,0,11.77,11.77,0,0,1,4.92,0Z" fill="#3a376f"/><path d="M581.37,224.17a11.77,11.77,0,0,1-4.92,0,11.77,11.77,0,0,1,4.92,0Z" fill="#3a376f"/><path d="M589.75,224.17c0,.14-.78.26-1.73.26s-1.73-.12-1.73-.26.77-.26,1.73-.26S589.75,224,589.75,224.17Z" fill="#3a376f"/><path d="M557.55,271.8c-.09.11-1-.52-2-1.4s-1.81-1.68-1.72-1.79,1,.52,2.05,1.4S557.65,271.69,557.55,271.8Z" fill="#3a376f"/><path d="M565.11,278.17c-.09.11-1-.52-2.05-1.4s-1.82-1.68-1.73-1.79,1,.52,2.06,1.4S565.2,278.06,565.11,278.17Z" fill="#3a376f"/><path d="M572.67,284.54c-.1.11-1-.52-2.06-1.4s-1.81-1.68-1.72-1.79,1,.52,2.05,1.4S572.76,284.43,572.67,284.54Z" fill="#3a376f"/><path d="M579.36,290.18c-.09.11-.82-.35-1.62-1s-1.39-1.32-1.3-1.43.82.35,1.63,1S579.45,290.07,579.36,290.18Z" fill="#3a376f"/><path d="M518.54,289.17a12.05,12.05,0,0,1,0-5,12.53,12.53,0,0,1,0,5Z" fill="#3a376f"/><path d="M518.54,299.11a12,12,0,0,1,0-5,12.48,12.48,0,0,1,0,5Z" fill="#3a376f"/><path d="M518.54,309.05a12,12,0,0,1,0-5,12.48,12.48,0,0,1,0,5Z" fill="#3a376f"/><path d="M518.54,315.75c-.15,0-.26-.38-.26-.86s.11-.86.26-.86.25.38.25.86S518.68,315.75,518.54,315.75Z" fill="#3a376f"/><polygon points="117.82 66.87 135.73 43.66 140.11 72.85 163.73 72.04 146.22 95.28 169.47 113.45 139.78 102.31 135.63 131.53 115.71 111.94 90.61 129.57 96.1 103.93 67.61 99.4 89.77 86.18 76.85 63.66 99.35 76.55 101.69 44.64 117.82 66.87" fill="#fafafa"/><path d="M146.22,95.29l1.59,1.21,4.61,3.57c4,3.12,10,7.72,17.56,13.61l.6.46-.7-.29c-4.06-1.69-8.67-3.37-13.73-5.15s-10.56-3.67-16.31-6.06l.19-.11c-1.32,8.71-2.8,18.5-4.4,29l0,.32-.22-.23-19.87-19.7.22,0L91,129.3l-.39.27.09-.47c1.64-8,3.38-16.52,5.17-25.23l.16.22L67.73,99.6l-.56-.09.49-.29,19.23-11.3,3-1.75-.06.29c-2.46-3.62-4.62-7.38-6.74-11.13S79,67.83,77,64.08l-.32-.61.6.34L99.75,76.59l-.29.15q.57-8.33,1.11-16.39.25-4,.49-8c.06-1.32.13-2.63.2-3.94,0-.65,0-1.3.07-2l0-1V45a2.57,2.57,0,0,1,0-.37l.23-.32.07.1Q110.17,56.21,118,67.05h-.28q9.45-12.48,17.74-23.46l.22-.29.06.36q2.55,16.06,4.62,29l-.14-.11,23.52-.74h.2l-.12.16-13,17.29-3.38,4.47-1.17,1.53s.37-.52,1.11-1.52l3.34-4.48c3-4,7.32-9.82,13-17.41l.08.16-23.5.8h-.12l0-.11q-2.09-13-4.67-29l.28.07q-8.26,11-17.71,23.49l-.14.18-.14-.19L101.33,44.64l.3-.22a1.81,1.81,0,0,1,.09.58v1.48c0,.65,0,1.3-.08,2-.06,1.31-.13,2.62-.19,3.94-.16,2.64-.32,5.31-.48,8-.37,5.38-.73,10.85-1.11,16.4l0,.32-.27-.16L77.08,64.16l.28-.27c2,3.74,4,7.5,6.07,11.24s4.28,7.5,6.72,11.09l.12.19-.18.11-3,1.76L67.86,99.57l-.07-.37,28.31,4.5.2,0,0,.19c-1.79,8.72-3.54,17.25-5.18,25.26l-.3-.2,24.73-17.34.12-.08.11.1,19.85,19.73-.28.09c1.61-10.5,3.11-20.29,4.45-29l0-.18.16.07c5.73,2.39,11.23,4.29,16.28,6.09S165.9,112,170,113.66l-.1.18L152.32,100.1l-4.56-3.59Z" fill="#3a376f"/><path d="M115.6,90.35A2.36,2.36,0,1,1,113.24,88,2.38,2.38,0,0,1,115.6,90.35Z" fill="#3a376f"/><path d="M122.81,90.35A2.36,2.36,0,1,1,120.45,88,2.38,2.38,0,0,1,122.81,90.35Z" fill="#3a376f"/><path d="M130,90.35A2.36,2.36,0,1,1,127.66,88,2.38,2.38,0,0,1,130,90.35Z" fill="#3a376f"/><path d="M440.7,135.57a76.31,76.31,0,0,1-3.93-12.31,26.47,26.47,0,0,1,.3-12.82c.19-.63,1.87-4.85,2.52-4.82.46,0-.5,3.92-.25,4.31a22.31,22.31,0,0,1,3.2,12.79,58.85,58.85,0,0,1-1.84,12.85" fill="#263238"/><path d="M463.92,184.19c-6.62.24-21.88-18.13-22.27-24.81l-2.3-40.24c-1-10.79,4.46-20.34,15.15-21h1a19.25,19.25,0,0,1,19.16,17.74c.78,9.36,1.52,19.7,1.48,24.72-.09,10.4-10.37,12-10.37,12s.08,2.41.22,5.46c.31,6.84,4.3,25.84-2.48,26.09Z" fill="#ffbe9d"/><path d="M465.77,152.63a24.65,24.65,0,0,1-13.41-3.95s3.25,7.8,13.51,6.83Z" fill="#eb996e"/><path d="M471.72,123.86a1.48,1.48,0,0,1-1.41,1.51,1.42,1.42,0,0,1-1.52-1.34,1.48,1.48,0,0,1,1.41-1.5A1.41,1.41,0,0,1,471.72,123.86Z" fill="#263238"/><path d="M472.49,120.46c-.18.19-1.3-.64-2.88-.63s-2.73.82-2.91.62.1-.43.61-.81a4,4,0,0,1,2.32-.73,3.81,3.81,0,0,1,2.3.74C472.41,120,472.58,120.37,472.49,120.46Z" fill="#263238"/><path d="M457.21,124.52a1.47,1.47,0,0,1-1.41,1.5,1.4,1.4,0,0,1-1.52-1.33,1.47,1.47,0,0,1,1.41-1.5A1.41,1.41,0,0,1,457.21,124.52Z" fill="#263238"/><path d="M457,120.88c-.18.2-1.3-.63-2.88-.62s-2.73.81-2.91.62.1-.44.61-.81a4,4,0,0,1,2.32-.74,3.94,3.94,0,0,1,2.3.74C456.92,120.45,457.09,120.8,457,120.88Z" fill="#263238"/><path d="M462.71,133.14a10.3,10.3,0,0,1,2.57-.48c.4,0,.78-.13.85-.4a2.11,2.11,0,0,0-.28-1.21l-1.2-3.1c-1.67-4.42-2.88-8-2.71-8.12s1.68,3.46,3.35,7.88c.4,1.09.79,2.12,1.15,3.12a2.36,2.36,0,0,1,.22,1.6,1.05,1.05,0,0,1-.66.6,2.62,2.62,0,0,1-.69.09A10.06,10.06,0,0,1,462.71,133.14Z" fill="#263238"/><path d="M456.84,114.91c-.22.41-1.75,0-3.62,0s-3.42.26-3.61-.16c-.09-.2.23-.57.88-.9A6.25,6.25,0,0,1,456,114C456.64,114.33,456.93,114.72,456.84,114.91Z" fill="#263238"/><path d="M472.1,116.72c-.32.37-1.61,0-3.16,0s-2.85.3-3.16-.07c-.14-.19.06-.55.63-.91a5,5,0,0,1,2.56-.64,4.86,4.86,0,0,1,2.53.68C472.06,116.17,472.24,116.54,472.1,116.72Z" fill="#263238"/><path d="M440.22,126.84c-.18-.08-7.07-2.09-6.82,5s7.25,5.38,7.26,5.18S440.22,126.84,440.22,126.84Z" fill="#ffbe9d"/><path d="M438.41,134.42s-.12.09-.32.2a1.23,1.23,0,0,1-.91,0,3.06,3.06,0,0,1-1.5-2.7,4.1,4.1,0,0,1,.28-1.78,1.4,1.4,0,0,1,.89-1,.61.61,0,0,1,.73.32c.1.19.06.34.1.35s.15-.13.08-.42a.75.75,0,0,0-.29-.43.9.9,0,0,0-.69-.16,1.74,1.74,0,0,0-1.24,1.15,4.16,4.16,0,0,0-.35,2c.09,1.43.87,2.75,1.89,3a1.35,1.35,0,0,0,1.12-.23C438.41,134.59,438.44,134.43,438.41,134.42Z" fill="#eb996e"/><path d="M469.6,104.3c1.11-.69-2.47-4.26-5.32-5.41-4.31-1.75-10.81-2.66-14.66-1.36C445,99.08,441.2,101.61,439,106a28.2,28.2,0,0,0-2.47,14.4,8.49,8.49,0,0,0,1.18,4.3c1.05,1.53,3,2.43,3,4.6a3,3,0,0,0,.82,2.14c1.35,1.32,2.86-.05,3.53-1.38,1.42-2.85,1.45-6.18,1.44-9.38a20.82,20.82,0,0,0-.74-6.73c-.39-1.17-1-2.26-1.32-3.45a4.27,4.27,0,0,1,.34-3.57,3.8,3.8,0,0,1,.54-.61,7.29,7.29,0,0,1,7.21-1.73c4,1.24,10.87,3,12.58,1.62a10.94,10.94,0,0,0,3-3.37Z" fill="#263238"/><path d="M458.41,134.19c-.09,0-.13.41,0,1a3.92,3.92,0,0,0,1.36,2,6.42,6.42,0,0,0,2.1,1.11c.57.18.94.23,1,.13s-.26-.31-.76-.61a14.67,14.67,0,0,1-1.85-1.21C458.94,135.62,458.64,134.13,458.41,134.19Z" fill="#263238"/><polygon points="529.21 247.12 479.94 250.48 478.32 233.88 537.95 236.09 529.21 247.12" fill="#ffbe9d"/><path d="M564.21,192.89c0,.07.6,1.21.6,1.21l-18.23,39.24-18.8,10.29-46,.24-.11-2.5,23.18-10.53,29.54-.6,14.44-32.45a2.9,2.9,0,0,1,2-1.64Z" fill="#455a64"/><path d="M527.78,243.63a11.22,11.22,0,0,0,1.14-1.94c.65-1.23,1.51-2.93,2.44-4.83s1.74-3.62,2.31-4.89a10.22,10.22,0,0,0,.83-2.08,10.37,10.37,0,0,0-1.14,1.93c-.65,1.23-1.51,2.94-2.44,4.83s-1.74,3.63-2.31,4.9A10.22,10.22,0,0,0,527.78,243.63Z" fill="#263238"/><polygon points="523.32 239.72 503.66 239.96 518.13 231.48 534.01 231.12 523.32 239.72" fill="#263238"/><path d="M481.71,241.37l.48,0h1.37l5.06-.09c4.27-.08,10.16-.13,16.68-.17s12.42-.15,16.69-.32c2.13-.08,3.86-.16,5-.24l1.37-.1a2.43,2.43,0,0,0,.48-.07,1.52,1.52,0,0,0-.48,0H527l-5,.09c-4.27.07-10.17.12-16.69.17s-12.41.15-16.68.31c-2.13.08-3.86.17-5.05.25l-1.38.1A1.62,1.62,0,0,0,481.71,241.37Z" fill="#263238"/><path d="M530.53,242.12a2.89,2.89,0,0,0,.31-.57l.8-1.67,2.86-6.19,9.26-20.52c2.53-5.7,4.9-11,6.89-15.48l-.14.12,10.39-2.63,2.89-.77a7,7,0,0,0,1-.31,5.9,5.9,0,0,0-1,.19l-2.92.65-10.44,2.47-.09,0,0,.09-7,15.45c-3.56,8-6.78,15.26-9.13,20.57-1.13,2.61-2.06,4.73-2.72,6.26l-.72,1.71A4.34,4.34,0,0,0,530.53,242.12Z" fill="#263238"/><path d="M541.74,230.51s-.85-.79-2.39,1.39-4,8.45-4,8.45l-2.93,1.51s2.49-3.24,2.43-4.52-2.05-1.19-3.06.69a52.9,52.9,0,0,1-4,5.6s1.16,3.66,1.43,3.49,5.24-.67,5.24-.67l1.33-.7s3.36-.16,3.5-1.08,5.5-5,5.46-5.85-.23-5.32-.23-5.32,2.26-6.35,1.69-7S543.3,224.65,541.74,230.51Z" fill="#ffbe9d"/><path d="M541.38,230.42s.09,0,.24.07a.53.53,0,0,1,.32.51v0c-.18.68-.38,1.74-.6,3s-.45,2.82-.85,4.4a8,8,0,0,1-1.47,2.88l-1.56,2.23a13.44,13.44,0,0,0-1.34,2.14,12.1,12.1,0,0,0,1.61-1.93l1.65-2.18a15.09,15.09,0,0,0,.92-1.35,6.82,6.82,0,0,0,.65-1.66,40.51,40.51,0,0,0,.79-4.47l.42-3v0h0a.65.65,0,0,0-.52-.62C541.46,230.36,541.37,230.41,541.38,230.42Z" fill="#eb996e"/><path d="M542.66,241.17a32.36,32.36,0,0,0,1.85-7.67,32.36,32.36,0,0,0-1.85,7.67Z" fill="#eb996e"/><path d="M533.15,236.68s.14,0,.37.06a1.18,1.18,0,0,1,.81.29c.24.24.16.71-.06,1.2l-.7,1.7c-.25.57-.48,1.12-.72,1.66s-.52.92-.73,1.29c-.44.74-.61,1.26-.55,1.28s.33-.41.84-1.09a14.12,14.12,0,0,0,.83-1.27c.25-.51.51-1.09.78-1.69s.45-1.15.66-1.71a2.33,2.33,0,0,0,.19-.85,1,1,0,0,0-.3-.77,1.28,1.28,0,0,0-1.06-.23C533.27,236.59,533.14,236.65,533.15,236.68Z" fill="#eb996e"/><path d="M463.79,428.28l-4.67,19.6s18.14,11.37,17.63,15.08l-37.91-7.78,6-30.83Z" fill="#455a64"/><path d="M447.73,443.81a1.6,1.6,0,0,0-1.43,1.57,1.53,1.53,0,0,0,1.53,1.44,1.67,1.67,0,0,0,1.5-1.66,1.57,1.57,0,0,0-1.75-1.33" fill="#e0e0e0"/><g opacity="0.6"><path d="M438.84,455.18l.72-3.09,36.08,8.62s1.54,1.08,1.11,2.25Z" fill="#fff"/></g><path d="M459.78,447.81c0,.18-1,.08-2,.49s-1.68,1.11-1.83,1,.34-1.14,1.59-1.62S459.85,447.64,459.78,447.81Z" fill="#263238"/><path d="M463.42,450.29c0,.19-.86.34-1.65,1s-1.13,1.46-1.32,1.42-.08-1.13.91-1.93S463.45,450.11,463.42,450.29Z" fill="#263238"/><path d="M464.71,455.56c-.17,0-.24-1,.44-1.91s1.63-1.16,1.67-1-.59.61-1.14,1.38S464.9,455.58,464.71,455.56Z" fill="#263238"/><path d="M460.35,443.22c-.11.16-.91-.27-2-.42s-1.94,0-2-.15.86-.69,2.1-.5S460.47,443.1,460.35,443.22Z" fill="#263238"/><path d="M450.85,433.43l0,20.16s20.28,6.74,20.64,10.47l-38.66,1.44-1.31-31.4Z" fill="#455a64"/><path d="M438.86,452.34a1.6,1.6,0,0,0-1,1.86,1.52,1.52,0,0,0,1.82,1.05,1.69,1.69,0,0,0,1.07-2,1.56,1.56,0,0,0-2-.87" fill="#e0e0e0"/><g opacity="0.6"><path d="M432.85,465.5v-3.17l37.07-.2s1.75.69,1.6,1.93Z" fill="#fff"/></g><path d="M451.49,453.36c0,.2-.94.32-1.84,1s-1.38,1.46-1.55,1.4.06-1.19,1.17-2S451.53,453.19,451.49,453.36Z" fill="#263238"/><path d="M455.61,454.91c.05.18-.76.54-1.37,1.37s-.76,1.69-.95,1.69-.35-1.08.43-2.1S455.6,454.73,455.61,454.91Z" fill="#263238"/><path d="M458.09,459.73c-.17,0-.47-.9,0-2s1.31-1.51,1.4-1.36-.44.74-.79,1.61S458.28,459.7,458.09,459.73Z" fill="#263238"/><path d="M451,448.77c-.07.18-1,0-2,.06s-1.88.49-2,.33.67-.87,1.93-1S451.07,448.62,451,448.77Z" fill="#263238"/><path d="M420.4,287.33l.71,15.91,7,61.77s-1.3,30.17-2.16,47.21c-.75,14.8,2.69,40.36,2.69,40.36l24.59-1.12,5-86,3.1-53.61,8.42-24.73Z" fill="#3a376f"/><polygon points="486.6 287.17 484.43 373.82 462.42 439.67 461.45 443.62 446.6 440.7 450.72 287.05 486.6 287.17" fill="#3a376f"/><path d="M461.27,312.51a1.65,1.65,0,0,1,0,.36c0,.26,0,.6,0,1.05,0,.95,0,2.32.06,4.06.05,3.52,0,8.62,0,14.92-.19,12.6-.8,30-2.11,49.19s-2.86,36.53-4,49.08c-.6,6.25-1.08,11.32-1.42,14.85-.17,1.73-.31,3.09-.4,4l-.12,1.05a1.68,1.68,0,0,1-.06.35s0-.12,0-.36,0-.61.07-1.05c.08-.95.19-2.31.32-4,.31-3.54.74-8.61,1.27-14.87,1.08-12.55,2.61-29.89,3.89-49.08s2-36.57,2.24-49.16c.12-6.3.19-11.4.19-14.92,0-1.74,0-3.11,0-4.06,0-.44,0-.79,0-1.05A2.45,2.45,0,0,1,461.27,312.51Z" fill="#455a64"/><path d="M439,288.07a3.06,3.06,0,0,1-.06.92,14.3,14.3,0,0,1-.59,2.44,16.19,16.19,0,0,1-4.51,6.85,16,16,0,0,1-7.3,3.65,12.73,12.73,0,0,1-2.47.28,3,3,0,0,1-.91,0c0-.09,1.3-.06,3.31-.55a16.65,16.65,0,0,0,7.06-3.68,17,17,0,0,0,4.51-6.62C438.81,289.36,439,288.06,439,288.07Z" fill="#3a376f"/><path d="M461.87,290.81a1.27,1.27,0,1,1-1.32-1.22A1.28,1.28,0,0,1,461.87,290.81Z" fill="#3a376f"/><path d="M484,301.9a8,8,0,0,1-1.81-1.56,19.83,19.83,0,0,1-5.11-10.27,8.39,8.39,0,0,1-.16-2.4,22.82,22.82,0,0,1,.48,2.33,23.63,23.63,0,0,0,1.89,5.38,24.09,24.09,0,0,0,3.14,4.74C483.41,301.23,484.08,301.85,484,301.9Z" fill="#3a376f"/><path d="M461.77,163.47,440.55,147l-4,6.88s-17.25,14-20.46,17.9l7.12,59.78s-3.37,31.77-3.56,34.27-2.06,24.39-2.06,24.39c-.18,4.14,3.4,9,4.09,9,0,0,3.26-4.32,7-4.18s29.07,5.85,29.07,5.85l30.13-8.22-5.92-60.46-2.87-40.51-3.35-15.4-6.28-5.78-3.3-10.1s-.84,12.81-1,12.35S461.77,163.47,461.77,163.47Z" fill="#fbd765"/><path d="M437.14,154.91A6.82,6.82,0,0,0,438,156c.59.67,1.46,1.63,2.58,2.77,2.22,2.3,5.45,5.31,9,8.67,1.73,1.67,3.36,3.29,4.78,4.81l.17.19.16-.18c2.16-2.39,3.69-4.64,4.88-6.13l1.39-1.75a3.17,3.17,0,0,0,.48-.64,3.62,3.62,0,0,0-.59.54c-.36.37-.87.93-1.49,1.67-1.26,1.45-2.85,3.67-5,6h.33c-1.41-1.55-3-3.18-4.77-4.86-3.52-3.37-6.78-6.33-9.06-8.56-1.15-1.11-2.05-2-2.68-2.65A8.56,8.56,0,0,0,437.14,154.91Z" fill="#263238"/><path d="M476.54,262.43a.68.68,0,0,0,0-.23c0-.19,0-.41-.06-.69-.06-.64-.15-1.52-.26-2.63-.25-2.32-.61-5.61-1.06-9.66-.92-8.15-2.24-19.41-3.77-31.83s-3-23.67-4.17-31.79c-.57-4.07-1.09-7.35-1.46-9.61-.2-1.1-.36-2-.47-2.6l-.14-.68a.66.66,0,0,0-.06-.22.58.58,0,0,0,0,.23c0,.19,0,.41.09.69.09.63.22,1.51.38,2.61.31,2.31.76,5.59,1.31,9.62,1.07,8.14,2.49,19.38,4,31.81s2.91,23.63,3.92,31.81c.51,4,.92,7.32,1.21,9.64.15,1.11.27,2,.36,2.62l.1.68A1.16,1.16,0,0,0,476.54,262.43Z" fill="#263238"/><g opacity="0.3"><path d="M482.5,237.77c-2.27,1.27-4.89,1.8-7.12,3.15a25.43,25.43,0,0,0-4.25,3.59c-9.33,8.88-21.27,15.49-34.06,16.3-4.39.28-9.12-.25-12.53-3.07-1.87-1.55-3.26-4-2.67-6.4.72-2.89,3.87-4.31,6.64-5.32l25.86-9.47a118.48,118.48,0,0,1,16.6-5.16,59.21,59.21,0,0,1,11.58-1.23"/></g><path d="M455.05,276.06c.07.12,6.25-3.62,13.79-8.35s13.61-8.66,13.54-8.77-6.25,3.62-13.8,8.35S455,276,455.05,276.06Z" fill="#263238"/><path d="M476,295.9a5.57,5.57,0,0,0-.09-1.25c-.08-.9-.19-2-.33-3.38-.25-2.86-.45-6.82-.59-11.2s-.3-8.35-.44-11.22c-.07-1.35-.14-2.49-.19-3.4a5,5,0,0,0-.14-1.24,6.51,6.51,0,0,0-.05,1.25c0,.9,0,2,0,3.4,0,2.88.15,6.85.3,11.23s.39,8.36.74,11.22c.16,1.43.34,2.58.48,3.37A6.48,6.48,0,0,0,476,295.9Z" fill="#263238"/><g opacity="0.3"><path d="M443.63,228.26c-2.59-8.48-2.81-18.35-3-27.16-1.3,6.12-2.63,15.45-3.63,21.87l2.75,6Z"/></g><g opacity="0.3"><path d="M465.1,172.72a3.7,3.7,0,0,1-1-.69c-.92-1.22-1.46-2.69-2.35-3.92a70.21,70.21,0,0,0-6.35,7.42c-3.2-3.09-6.41-6.18-9.32-9.54a74.34,74.34,0,0,1-6.42-8.56l14.86,14.67,7.28-8.63Z"/></g><path d="M465.82,164.81a20,20,0,0,0,1.49,3.19,7.14,7.14,0,0,0,2.16,2.83c.09-.09-.86-1.32-1.73-3.05A9.94,9.94,0,0,0,465.82,164.81Z" fill="#263238"/><path d="M444.43,176.25a3.89,3.89,0,0,0-.53-.91,16.55,16.55,0,0,0-1.86-2.17,33.11,33.11,0,0,0-3.19-2.76,14.62,14.62,0,0,0-4.48-2.64,12.12,12.12,0,0,0-5.17-.3,34.46,34.46,0,0,0-4.13.83c-1.16.27-2.1.5-2.74.67a3.52,3.52,0,0,0-1,.32,4.77,4.77,0,0,0,1-.13c.66-.11,1.61-.29,2.77-.52s2.55-.56,4.11-.71a12.34,12.34,0,0,1,5,.31,15.29,15.29,0,0,1,4.34,2.53,41.64,41.64,0,0,1,3.23,2.65C443.55,175,444.36,176.3,444.43,176.25Z" fill="#263238"/><path d="M475,223.11l-.12,12.11s-17.35,9.17-28.8,12.71-25.13,3.69-25.13,3.69l4-19.84Z" fill="#ffbe9d"/><path d="M509.36,224a2.59,2.59,0,0,0-1.41-2.42c-1.57-.89-4.9-2.86-4.9-2.86l-9.82-.46L475,223.11l-.12,12.11s9.41.09,11.59-.09,8.15-2.41,8.15-2.41,10.24.84,10.7.25,1.08-1.28.41-1.66-8.59-2.06-8.59-2.06l5.23-.65s7.75,1.28,8.31,1,1.23-1.28.72-2l-.52-.72a1.65,1.65,0,0,0-.9-2l-.74-.21Z" fill="#ffbe9d"/><path d="M495.41,224.51a6.28,6.28,0,0,0,2.37.29,24,24,0,0,1,5.65.24,27.61,27.61,0,0,1,2.93,1.1,22,22,0,0,0,2.48.78,8.48,8.48,0,0,0,2.36.38,23.7,23.7,0,0,0-2.27-.69c-.7-.22-1.52-.5-2.41-.87a24.3,24.3,0,0,0-3-1.15,10.94,10.94,0,0,0-3.2-.27c-1,0-1.85.12-2.57.15C496.32,224.56,495.42,224.44,495.41,224.51Z" fill="#eb996e"/><path d="M496.14,221.69a4.93,4.93,0,0,0,2.12.18,11.15,11.15,0,0,1,4.95.43c1.86.69,3.54,1.36,4.77,1.79a9.52,9.52,0,0,0,2,.62,9.82,9.82,0,0,0-1.91-.93c-1.2-.51-2.86-1.23-4.74-1.92a7.61,7.61,0,0,0-2.82-.5c-.89,0-1.66.12-2.3.18C497,221.7,496.15,221.63,496.14,221.69Z" fill="#eb996e"/><path d="M416.08,171.77s-4.89,8.71-5.53,12.88-.74,47.83.12,48.61A22,22,0,0,0,413,235s-4.66,1.25-3.12,3.66a43.85,43.85,0,0,0,3.06,4.21s1.06,8,1.94,8.18,6,2.78,6,2.78,14-8.44,15.07-12.63,3.81-12.58,3.81-12.58L437,223l5.79-35.44s3.45-11.41-3.86-15.68S418.54,167,416.08,171.77Z" fill="#fbd765"/><path d="M441.72,194.25a4,4,0,0,0-.12.54c-.08.38-.17.9-.29,1.55-.25,1.41-.6,3.39-1,5.89-.86,5.09-2.06,12.25-3.48,20.7V223l0,.07,2.7,5.67v-.18c-1.23,4-2.52,8.36-3.91,12.79l-.23.56-.35.53a9.37,9.37,0,0,1-.79,1c-.27.33-.58.62-.88.92s-.61.6-.92.88a49,49,0,0,1-3.89,3.14c-2.63,2-5.27,3.7-7.8,5.28H421c-1.28-.65-2.52-1.26-3.75-1.84-.61-.28-1.21-.56-1.83-.8l-.24-.08-.22-.07a.8.8,0,0,1-.19-.27,6.28,6.28,0,0,1-.31-.86,55.48,55.48,0,0,1-1.31-6.87v-.05l0,0c-.77-.92-1.46-1.83-2.07-2.7-.31-.43-.6-.86-.87-1.27a4.66,4.66,0,0,1-.34-.61,1.67,1.67,0,0,1-.07-.62,2.67,2.67,0,0,1,1.51-1.71,9.27,9.27,0,0,1,1.79-.76l.17,0L413,235c-.82-.53-1.41-1-1.79-1.25s-.57-.45-.58-.44,0,.06.12.14.22.21.4.37c.38.31.95.77,1.76,1.32l0-.15a8.5,8.5,0,0,0-1.85.73,5,5,0,0,0-1,.68,2,2,0,0,0-.68,1.18,2,2,0,0,0,.08.76,5.32,5.32,0,0,0,.35.67c.27.42.56.85.86,1.29.61.88,1.28,1.8,2.06,2.75l0-.09a55.14,55.14,0,0,0,1.26,6.93,6.29,6.29,0,0,0,.34.94.93.93,0,0,0,.4.47l.24.08.22.08c.6.23,1.2.51,1.8.8,1.21.57,2.45,1.2,3.72,1.85l.11.05.11-.06c2.56-1.57,5.2-3.31,7.86-5.27,1.32-1,2.65-2,3.92-3.17.33-.29.64-.58.95-.89s.62-.61.9-.95a8.44,8.44,0,0,0,.82-1.05c.13-.19.26-.37.38-.57l.27-.65c1.41-4.47,2.67-8.78,3.89-12.79l0-.09,0-.09c-.94-2-1.86-3.86-2.72-5.66l0,.13c1.34-8.45,2.49-15.63,3.3-20.73.38-2.5.68-4.49.9-5.9.09-.66.16-1.18.22-1.57A2.79,2.79,0,0,0,441.72,194.25Z" fill="#263238"/><path d="M412.76,234.86a2.08,2.08,0,0,0,.74.27,6.73,6.73,0,0,0,2.14.23,3.6,3.6,0,0,0,1.46-.44,11.67,11.67,0,0,0,1.44-.93c1-.72,1.94-1.57,3-2.4,2.16-1.66,4.2-3.08,5.66-4.12a16.16,16.16,0,0,0,2.31-1.76,18.72,18.72,0,0,0-2.51,1.47c-1.51,1-3.58,2.34-5.76,4-1.09.83-2.08,1.7-3,2.42A5.74,5.74,0,0,1,415.6,235a8.18,8.18,0,0,1-2.07-.07A3.13,3.13,0,0,0,412.76,234.86Z" fill="#263238"/><path d="M412.94,242.89a2.41,2.41,0,0,0,.92.17,5,5,0,0,0,2.5-.58,41.47,41.47,0,0,0,6.88-4.83,66.57,66.57,0,0,0,6-5.93c.72-.79,1.29-1.45,1.68-1.91a4,4,0,0,0,.56-.75,25.84,25.84,0,0,0-2.49,2.42c-1.51,1.53-3.57,3.66-6,5.79a51.53,51.53,0,0,1-6.72,4.9,5.11,5.11,0,0,1-2.34.69A5.55,5.55,0,0,0,412.94,242.89Z" fill="#263238"/><g opacity="0.3"><path d="M429.35,226a17.37,17.37,0,0,1-3.29,3.87l-5.85,5.64c-1.12,1.08-2.45,2.24-4,2.09a5.07,5.07,0,0,1-2.17-.91c-.61-.39-1.29-1-1.16-1.69a6,6,0,0,0,5.16-.79,16,16,0,0,0,1.79-1.6,46.34,46.34,0,0,1,9.47-6.49"/></g><path d="M474,235.33a6.54,6.54,0,0,0,1.21.09l3.3.05,4.89,0h2.88a7.51,7.51,0,0,0,1.54-.33l1.51-.44c2.1-.63,4.08-1.26,5.86-1.84h-.08c2.72.13,5,.22,6.65.27l1.9,0a3,3,0,0,0,.68,0,1.94,1.94,0,0,0-.67-.11l-1.89-.17c-1.63-.13-3.93-.28-6.64-.45h-.08l-5.87,1.8-1.5.44a7.6,7.6,0,0,1-1.43.32l-2.88,0-4.88.09-3.29.1A5.39,5.39,0,0,0,474,235.33Z" fill="#eb996e"/><rect x="201.25" y="50.29" width="173.25" height="415.22" rx="20.69" fill="#263238"/><rect x="187.23" y="50.46" width="173.25" height="415.22" rx="22.31" fill="#455a64"/><path d="M334.36,57.08l-23.53,0c-3.16,0-5.72,3.19-5.71,7.14v5.12c0,4-2.56,7.15-5.71,7.14l-45.88-.06c-3.16,0-5.72-3.22-5.72-7.17V64.11c0-4-2.57-7.16-5.72-7.16h-8.28l-20.6,0c-10.23,0-18.52,9.9-18.52,22.15l.17,355.71c0,12.25,8.29,22.18,18.52,22.2l121.15.17c10.23,0,18.52-9.9,18.52-22.16l-.16-355.7C352.88,67,344.59,57.1,334.36,57.08Z" fill="#fff"/><path d="M334.36,57.08l.72,0a11.45,11.45,0,0,1,2.11.24,16.94,16.94,0,0,1,7.53,3.47,22,22,0,0,1,4.15,4.58A23.23,23.23,0,0,1,352,72.19a26.52,26.52,0,0,1,.81,4.15,39.3,39.3,0,0,1,.19,4.53c0,3.12,0,6.44,0,10,0,28.16.08,68.9.14,119.25s.08,110.29.13,176.85q0,12.48,0,25.27,0,6.39,0,12.85v6.48a55.14,55.14,0,0,1-.19,6.54,24.89,24.89,0,0,1-1.58,6.4,21.57,21.57,0,0,1-3.25,5.76,20.26,20.26,0,0,1-4.86,4.51,16.62,16.62,0,0,1-6.19,2.4,43.43,43.43,0,0,1-6.64.25h-6.64l-13.38,0-54.65-.08-28,0-14.11,0a16.89,16.89,0,0,1-7-1.44,18.61,18.61,0,0,1-5.85-4.18,23.72,23.72,0,0,1-6.08-12.9,44.28,44.28,0,0,1-.31-7.17q0-3.57,0-7.13,0-14.22,0-28.26,0-28.06,0-55.26c0-36.22,0-71.16,0-104.45s0-64.92,0-94.52q0-22.2,0-42.84,0-10.31,0-20.19c.06-6.61,2.57-13.16,7.24-17.47a17.17,17.17,0,0,1,8.15-4.33,14.4,14.4,0,0,1,2.27-.3c.76-.06,1.52-.07,2.27-.06h4.47l17.3,0h4.18c.69,0,1.37,0,2.07,0a5.12,5.12,0,0,1,2,.62,6.6,6.6,0,0,1,2.71,3.08,9.05,9.05,0,0,1,.77,4v4a9.44,9.44,0,0,0,.55,3.79,6.64,6.64,0,0,0,2.18,3,5.06,5.06,0,0,0,1.62.82,6.43,6.43,0,0,0,1.81.17l27.58.06,12.15,0h5.66a5.33,5.33,0,0,0,4.3-2.67A8.5,8.5,0,0,0,305,68.82c0-1.66,0-3.27,0-4.83a8.38,8.38,0,0,1,1.27-4.33,5.84,5.84,0,0,1,3.3-2.53,7,7,0,0,1,2-.15H317l6.15,0,8.34,0,2.84,0-2.84,0H311.59a7.45,7.45,0,0,0-1.94.16,5.67,5.67,0,0,0-3.2,2.47A8.25,8.25,0,0,0,305.21,64v4.83a8.69,8.69,0,0,1-1.23,5,5.52,5.52,0,0,1-4.47,2.77H281.7l-27.58,0a6.7,6.7,0,0,1-1.88-.18,5.06,5.06,0,0,1-1.72-.86,6.9,6.9,0,0,1-2.28-3.12,9.74,9.74,0,0,1-.58-3.9c0-1.31,0-2.63,0-4a8.83,8.83,0,0,0-.74-3.86,6.26,6.26,0,0,0-2.59-2.93,4.79,4.79,0,0,0-1.88-.58c-.66,0-1.37,0-2.05,0H214.44c-.76,0-1.51,0-2.25.06a13.93,13.93,0,0,0-2.22.3,16.89,16.89,0,0,0-8,4.25c-4.58,4.23-7.05,10.69-7.1,17.2s0,13.32,0,20.19q0,20.61,0,42.84c0,29.6,0,61.23.07,94.52s0,68.23.06,104.45q0,27.18,0,55.26,0,14,0,28.26v7.13a46.46,46.46,0,0,0,.3,7.09,23.21,23.21,0,0,0,6,12.62,18.16,18.16,0,0,0,5.69,4.07,16.48,16.48,0,0,0,6.79,1.39l14.11,0,28,0,54.65.08,13.38,0h6.65a41.86,41.86,0,0,0,6.55-.23,16,16,0,0,0,6-2.34,19.75,19.75,0,0,0,4.73-4.39,20.8,20.8,0,0,0,3.18-5.64,23.8,23.8,0,0,0,1.55-6.27,53.71,53.71,0,0,0,.19-6.48V412.2q0-12.78,0-25.27c0-66.56,0-126.51,0-176.85s0-91.09,0-119.25c0-3.52,0-6.84,0-10a38.9,38.9,0,0,0-.18-4.51,25.17,25.17,0,0,0-.79-4.13,23,23,0,0,0-3.07-6.76,21.8,21.8,0,0,0-4.11-4.57,17,17,0,0,0-7.47-3.5,11.69,11.69,0,0,0-2.1-.26Z" fill="#263238"/><polygon points="235.88 419.97 233.29 458.66 249.82 460.71 257.73 421.2 235.88 419.97" fill="#aa6550"/><path d="M233.5,453.55l-.16,1.11s-19.6,5-20.27,8.57L250,468l1.08-12.5A21.1,21.1,0,0,1,233.5,453.55Z" fill="#fbd765"/><path d="M246.87,459a1.54,1.54,0,0,1,.82,1.88,1.46,1.46,0,0,1-1.84.84,1.64,1.64,0,0,1-.86-2,1.51,1.51,0,0,1,2-.66" fill="#fff"/><path d="M250,468l.26-3-35.52-3.51s-1.74.51-1.7,1.71Z" fill="#fff"/><path d="M233.2,454.75c0,.18.88.38,1.69,1.08s1.19,1.53,1.36,1.48,0-1.14-1-2S233.18,454.57,233.2,454.75Z" fill="#263238"/><path d="M229.12,455.86c-.07.17.68.58,1.19,1.44s.59,1.69.77,1.7.43-1-.23-2.05S229.14,455.69,229.12,455.86Z" fill="#263238"/><path d="M226.32,460.26c.16.06.53-.81.19-1.87s-1.13-1.57-1.23-1.43.36.75.63,1.62S226.14,460.22,226.32,460.26Z" fill="#263238"/><path d="M302.62,108.51a7,7,0,0,1,5.39-5.37,13.81,13.81,0,0,1,7.86.8,18.76,18.76,0,0,1,7.57,4.76,11.59,11.59,0,0,1,3.2,8.25c-.15,2.84-1.55,5.69-.77,8.42.6,2.07,2.34,3.59,4.08,4.84s3.63,2.42,4.8,4.23,1.36,4.49-.22,5.94c-1.41,1.29-3.94,1.44-4.53,3.27-.37,1.13.26,2.31.6,3.45a9.09,9.09,0,0,1-1.15,7.24,15,15,0,0,1-5.49,5c-3.81,2.18-8.56,3.19-12.58,1.46a12.16,12.16,0,0,1-5-4.12,19.58,19.58,0,0,1-3.28-10.25,58.4,58.4,0,0,1,.7-10.88" fill="#263238"/><path d="M301.22,151.75a11.16,11.16,0,0,0,9.75-2,11.38,11.38,0,0,0,4.27-9.08c-.07-3.24-1.53-6.55-.53-9.63.69-2.12,2.44-3.77,3-5.92.88-3.2-1-6.44-2.87-9.2a21,21,0,0,0-4-4.92,7.16,7.16,0,0,0-5.87-1.76" fill="#263238"/><path d="M271.62,109.56c.18,2.45-1.42,4.63-3,6.47s-3.41,3.75-3.76,6.18c-.61,4.31,3.56,8.31,2.7,12.57-.46,2.28-2.31,4.12-2.64,6.43s.86,4.42,2.33,6.12,3.25,3.11,4.55,4.95c0,0,2.7,4.48,11,1.61" fill="#263238"/><path d="M308.86,113.3c.06-2.22-2-3.94-4-4.75s-4.32-1.12-6.15-2.36c-1.61-1.1-2.7-2.81-4.06-4.21a13.71,13.71,0,0,0-13.2-3.59,13.89,13.89,0,0,0-9.56,9.86c-.78,3.17-.25,6.9,2.22,9,2.86,2.44,7.11,1.89,10.77,1.14s7.82-1.51,10.89.67c1.84,1.31,2.9,3.44,4,5.42s2.55,4,4.68,4.74,5-.54,5.12-2.82" fill="#263238"/><path d="M300.2,113.76a3.7,3.7,0,0,1,3.28,3.77h0l-2.2,50.19c-.09,5.93-8.66,9.26-14.94,9.11h0c-6.34-.15-6.55-3.29-6.62-8.93-.14-9.42-.13-13-.13-12.9s-8-1.37-9.65-11.94c-.81-5.25-.53-13.87-.08-20.91.41-6.34,4.59-14.1,10.83-13.42Z" fill="#aa6550"/><path d="M271.72,129.11a1.35,1.35,0,0,0,1.29,1.37,1.29,1.29,0,0,0,1.38-1.22,1.34,1.34,0,0,0-1.29-1.37A1.28,1.28,0,0,0,271.72,129.11Z" fill="#263238"/><path d="M271.37,125.5c.17.17,1.18-.58,2.63-.58s2.5.74,2.65.56-.09-.39-.55-.74a3.73,3.73,0,0,0-2.12-.66,3.54,3.54,0,0,0-2.1.67C271.44,125.1,271.29,125.42,271.37,125.5Z" fill="#263238"/><path d="M285.12,129.36a1.34,1.34,0,0,0,1.28,1.37,1.28,1.28,0,0,0,1.39-1.21,1.34,1.34,0,0,0-1.29-1.37A1.27,1.27,0,0,0,285.12,129.36Z" fill="#263238"/><path d="M285.88,126.22c.17.18,1.19-.58,2.63-.57s2.5.73,2.66.56-.09-.4-.56-.74a3.63,3.63,0,0,0-2.12-.67,3.48,3.48,0,0,0-2.09.68C286,125.82,285.8,126.14,285.88,126.22Z" fill="#263238"/><path d="M280.63,137.74a9.78,9.78,0,0,0-2.35-.43c-.37,0-.71-.11-.78-.37a2,2,0,0,1,.25-1.1c.35-.9.72-1.84,1.1-2.83,1.52-4,2.62-7.35,2.46-7.41s-1.52,3.16-3.05,7.19q-.54,1.49-1.05,2.85a2.15,2.15,0,0,0-.19,1.46,1,1,0,0,0,.6.55,2.58,2.58,0,0,0,.63.08A8.64,8.64,0,0,0,280.63,137.74Z" fill="#263238"/><path d="M279.59,155a26.39,26.39,0,0,0,14-3.75s-3.55,7.26-14,6.25Z" fill="#724940"/><path d="M285.25,122.67c.14.4,1.58.21,3.28.42s3.06.68,3.28.33c.1-.17-.13-.55-.69-.93a5.65,5.65,0,0,0-5-.57C285.51,122.17,285.19,122.48,285.25,122.67Z" fill="#263238"/><path d="M271.59,122.26c.28.34,1.41,0,2.77,0s2.5.23,2.76-.12c.12-.16-.06-.5-.56-.81a4.24,4.24,0,0,0-2.25-.55,4.16,4.16,0,0,0-2.21.66C271.62,121.76,271.46,122.1,271.59,122.26Z" fill="#263238"/><path d="M307.5,148.52a9.4,9.4,0,0,1-8.16-2.33,9.59,9.59,0,0,1-2.89-8.05c.33-2.59,1.71-5.23.82-7.69-1.18-3.25-5.68-4.24-6.87-7.48-.7-1.89-.08-4.09-.86-5.94s-2.55-2.73-4.31-3.37-3.64-1.09-5.12-2.25-2.4-3.35-1.44-5A99,99,0,0,1,301.51,112c1.71.65,3.5,1.42,4.51,2.95s1,3.72.92,5.67q-.66,14.22-1.31,28.46" fill="#263238"/><path d="M313,114.19a.82.82,0,0,1,.17.43,1.58,1.58,0,0,1-.4,1.27,2.63,2.63,0,0,1-1.87,1,6,6,0,0,1-2.65-.8,7.17,7.17,0,0,0-3-.91,15.52,15.52,0,0,0-3.69.33,24.43,24.43,0,0,1-4.17.55,6,6,0,0,1-4.29-1.58,12.56,12.56,0,0,1-2.46-3.86,19,19,0,0,0-2-3.63,5.83,5.83,0,0,0-6-2.23,6.16,6.16,0,0,0-3.64,2.73,12.77,12.77,0,0,0-.76,1.56,1.19,1.19,0,0,1,.07-.45,6.06,6.06,0,0,1,.51-1.22,6.22,6.22,0,0,1,3.72-3,6,6,0,0,1,3.36.07,6.25,6.25,0,0,1,3.17,2.22,19.78,19.78,0,0,1,2.08,3.7,12.09,12.09,0,0,0,2.36,3.7,5.44,5.44,0,0,0,3.91,1.44,24.47,24.47,0,0,0,4.08-.5,15.25,15.25,0,0,1,3.81-.3,7.6,7.6,0,0,1,3.19,1,5.94,5.94,0,0,0,2.47.84,2.41,2.41,0,0,0,1.72-.79,1.56,1.56,0,0,0,.46-1.12C313.07,114.34,313,114.2,313,114.19Z" fill="#455a64"/><path d="M314.2,115.19c-.14.12-1.74-2.57-4.95-4.4a20.12,20.12,0,0,0-6.27-2.1,4.84,4.84,0,0,1,2,0,12.93,12.93,0,0,1,8.2,4.76A5.16,5.16,0,0,1,314.2,115.19Z" fill="#455a64"/><path d="M302.46,108.14s0,.12-.14.31a3.06,3.06,0,0,1-.68.72,4.53,4.53,0,0,1-3.46.78,8.71,8.71,0,0,1-4.52-2.73c-1.42-1.39-2.73-3.19-4.65-4.29a8.17,8.17,0,0,0-6-.77,8,8,0,0,0-4.19,2.74,8.69,8.69,0,0,0-1.59,3.08c-.23.8-.28,1.26-.32,1.26s0-.12,0-.35a7,7,0,0,1,.13-1,8.43,8.43,0,0,1,1.5-3.26,8.16,8.16,0,0,1,4.36-3,8.51,8.51,0,0,1,6.39.78c2.06,1.19,3.37,3,4.74,4.41a8.45,8.45,0,0,0,4.24,2.7,4.45,4.45,0,0,0,3.27-.57A6,6,0,0,0,302.46,108.14Z" fill="#455a64"/><path d="M302,153.05a1.4,1.4,0,0,0,.47.13,6.94,6.94,0,0,0,1.37.14,10.6,10.6,0,0,0,4.95-1.12,11.5,11.5,0,0,0,5.26-5.39,13.44,13.44,0,0,0,.9-9.2A26.5,26.5,0,0,1,314,133a7.43,7.43,0,0,1,1-4.11,15.09,15.09,0,0,0,1.62-3.74,8.72,8.72,0,0,0,.1-3.58,9.38,9.38,0,0,0-2.16-4.63,7.11,7.11,0,0,0-1-1c-.25-.19-.39-.28-.41-.26s.5.45,1.23,1.38a9.85,9.85,0,0,1,1.91,4.54,8.56,8.56,0,0,1-.17,3.39,15.13,15.13,0,0,1-1.62,3.6,10.06,10.06,0,0,0-.88,2.06,7.11,7.11,0,0,0-.26,2.35,27,27,0,0,0,.92,4.74,13,13,0,0,1-.8,8.81,11.21,11.21,0,0,1-4.95,5.24,11,11,0,0,1-4.75,1.28C302.64,153.12,302,153,302,153.05Z" fill="#455a64"/><path d="M320.5,106.26a3.46,3.46,0,0,0-1.78-.93,7.08,7.08,0,0,0-4.84.37,7.2,7.2,0,0,0-3.44,3.47,3.41,3.41,0,0,0-.46,2c.1,0,.26-.73.85-1.77a7.6,7.6,0,0,1,3.31-3.1,7.46,7.46,0,0,1,4.48-.51C319.78,106,320.45,106.35,320.5,106.26Z" fill="#455a64"/><path d="M312.77,112.93s0-.24,0-.69a3.4,3.4,0,0,1,.46-1.85,5.08,5.08,0,0,1,2.16-2.06,4.54,4.54,0,0,1,3.83-.1,7.18,7.18,0,0,1,3.42,3.31,10.8,10.8,0,0,1,1.06,5.48,37.16,37.16,0,0,1-1,6.26,27,27,0,0,0-.8,6.88,20.88,20.88,0,0,0,1.77,6.71,56.78,56.78,0,0,1,2.27,5.94,13.29,13.29,0,0,1,.48,5.61,16.6,16.6,0,0,1-1.46,4.73,37.43,37.43,0,0,1-3.83,6.13l-1.18,1.59a3.3,3.3,0,0,0-.38.58,3.05,3.05,0,0,0,.48-.5c.3-.34.73-.85,1.27-1.52a34.12,34.12,0,0,0,4-6.09,16.85,16.85,0,0,0,1.57-4.85,13.51,13.51,0,0,0-.44-5.84,56.24,56.24,0,0,0-2.26-6,20.46,20.46,0,0,1-1.71-6.51c-.19-4.64,1.67-8.93,1.73-13.09a11.29,11.29,0,0,0-1.18-5.75,7.52,7.52,0,0,0-3.71-3.47,4.81,4.81,0,0,0-4.14.2,5.23,5.23,0,0,0-2.23,2.26,3.53,3.53,0,0,0-.37,2A2.34,2.34,0,0,0,312.77,112.93Z" fill="#455a64"/><path d="M281.17,141.29a6.93,6.93,0,0,0,.9,1.78,2.31,2.31,0,0,0,1.66,1,2.07,2.07,0,0,0,1.78-1,3.46,3.46,0,0,0,.49-2c0-.65-.32-1.42-.95-1.49a1.63,1.63,0,0,0-.77.17L281,141.07" fill="#724940"/><path d="M282.5,144.05a4.49,4.49,0,0,0,1.77-.22,2.52,2.52,0,0,0,1.34-1.23,2.75,2.75,0,0,0,.05-2.2,3.45,3.45,0,0,0-.29-.5c-.13-.14-.11-.13-.25-.11s-.36.14-.54.21l-.54.22c-.71.3-1.36.55-1.9.76a6.29,6.29,0,0,1-1.81.55,5.8,5.8,0,0,1,1.64-.94c.53-.26,1.15-.55,1.85-.87l.54-.25a5.43,5.43,0,0,1,.61-.25.75.75,0,0,1,.49,0,1,1,0,0,1,.37.3,2.67,2.67,0,0,1,.37.63,3.18,3.18,0,0,1-.1,2.69,2.83,2.83,0,0,1-1.69,1.38,2.67,2.67,0,0,1-1.44.06C282.64,144.2,282.49,144.09,282.5,144.05Z" fill="#263238"/><path d="M319.51,273c0,.12.05.26.07.38C319.54,273,319.49,272.63,319.51,273Z" fill="#263238"/><path d="M329.31,282.08l1.47,13.18,11.93,11a4,4,0,0,0,.47-3c-.55-1.37,2.72,1.79,2.72,1.79v7.57s2.05.83,2.73-1,1.09-8.26,1.09-8.26l-1-.69a3.54,3.54,0,0,0,1-3,10.85,10.85,0,0,0,.68-5.5,16.57,16.57,0,0,0-1.23-4.82l-9.77-11Z" fill="#aa6550"/><path d="M335.3,294.76a20.08,20.08,0,0,0,3.52,4.43,20.33,20.33,0,0,0,4.28,3.68c.1-.11-1.78-1.79-3.92-4S335.41,294.67,335.3,294.76Z" fill="#724940"/><path d="M343.68,297.17a18.77,18.77,0,0,0,2.84,3.31,18.44,18.44,0,0,0,3.19,2.95,18.3,18.3,0,0,0-2.84-3.3A18.69,18.69,0,0,0,343.68,297.17Z" fill="#724940"/><path d="M345.29,294.15a27.41,27.41,0,0,0,2.25,2.71,33.68,33.68,0,0,0,2.18,2.78,11.51,11.51,0,0,0-4.43-5.49Z" fill="#724940"/><path d="M346.66,291a13.46,13.46,0,0,0,1.77,2.18,12.61,12.61,0,0,0,1.89,2.08,6.14,6.14,0,0,0-1.51-2.41A5.86,5.86,0,0,0,346.66,291Z" fill="#724940"/><path d="M258.84,133.15a19.9,19.9,0,0,1-4.36-1.71,20.35,20.35,0,0,1-4.14-2.22,20.07,20.07,0,0,1,4.37,1.71A20.43,20.43,0,0,1,258.84,133.15Z" fill="#455a64"/><path d="M245.05,153.4c-1,0-3.37,1.4-5.28,4.07l-.1.11c-1.37,1.8-2.65-3.32-2.88-5.23a2,2,0,0,0-2.67-1.54l-6.33,3-1.85.06a1.92,1.92,0,0,0-1.21,2.26l3,10.11.07,2.76,12.68,1.73.19-6.91c.19-.8.44-1.74.78-2.81a8.69,8.69,0,0,1,1.4-2.7,16.49,16.49,0,0,1,2.28-2.53,2.43,2.43,0,0,1,.2-.14,1,1,0,0,0,.36-.32A1.11,1.11,0,0,0,245.05,153.4Z" fill="#aa6550"/><path d="M244.8,122.26s-7.4-1.43-18-11.19-15.87-23-17.13-22.88-6.87-2.34-16.74,21.09-5.58,28.69-3.49,28.58,16.2-4.51,25.11-3.75S235,139.23,235,139.23Z" fill="#fbd765"/><path d="M260.78,134.42l-2.37,4.89-1.07,2.2a6.2,6.2,0,0,1-8,3l-15.92-5.1L242,118l16,8A6.32,6.32,0,0,1,260.78,134.42Z" fill="#263238"/><path d="M251.91,142.4l-4.75,10.09-2.53-.63-16,14-4.84-8.94s9.57-4.5,11.27-8-.4-4.28-.4-4.28l4.42-5.37Z" fill="#263238"/><path d="M193.76,109.68c-5.25,12.69-7.26,23.92-4.5,25.09s9.24-8.18,14.49-20.87S211,90,208.26,88.82,199,97,193.76,109.68Z" fill="#263238"/><polygon points="262.33 141.35 258.02 140.12 260.52 134.96 263.78 136.88 262.33 141.35" fill="#455a64"/><g opacity="0.3"><polygon points="237.54 141.03 249.23 148.1 250.58 145.22 237.54 141.03"/></g><path d="M257.61,136.21a22.88,22.88,0,0,1-4.82-1.73,23.11,23.11,0,0,1-4.6-2.25,48,48,0,0,1,9.42,4Z" fill="#455a64"/><path d="M256,139.44a3.51,3.51,0,0,1-1.35-.26l-1.42-.43c-.54-.18-1.09-.45-1.68-.7a17.91,17.91,0,0,1-4.13-2.18,22.26,22.26,0,0,1,4.34,1.67c.59.25,1.14.53,1.65.73s1,.37,1.36.53C255.59,139.13,256.06,139.36,256,139.44Z" fill="#455a64"/><path d="M205.1,106.57s-6.51-3.82-9.76,5,3.51,10.07,3.51,10.07A58.75,58.75,0,0,0,205.1,106.57Z" fill="#fafafa"/><path d="M211.6,96a9,9,0,0,1-.2,1.68c-.17,1.07-.42,2.62-.77,4.54-.25.94-.51,2-.8,3.08q-.21.83-.45,1.71c-.08.3-.15.6-.23.9s-.21.6-.31.9c-.43,1.21-.87,2.49-1.34,3.81-.11.33-.23.66-.35,1s-.28.65-.42,1c-.3.66-.59,1.33-.9,2l-.89,2c-.16.32-.28.66-.46,1l-.51.93L202,124c-.15.28-.3.56-.46.82s-.34.52-.51.78l-1,1.48-1.76,2.64c-1.18,1.53-2.17,2.74-2.85,3.58a10.58,10.58,0,0,1-1.11,1.27,9.89,9.89,0,0,1,.94-1.4l2.71-3.69,1.69-2.66c.31-.48.63-1,1-1.48.16-.26.33-.51.5-.77s.29-.55.45-.83c.6-1.13,1.24-2.31,1.9-3.53.16-.31.33-.61.5-.92s.29-.65.44-1c.3-.66.59-1.32.89-2s.6-1.33.89-2c.14-.33.31-.64.43-1l.35-1,1.36-3.77c.11-.3.22-.59.31-.89s.17-.6.25-.89l.47-1.7c.31-1.09.6-2.11.86-3,.39-1.88.71-3.4.94-4.49A11.68,11.68,0,0,1,211.6,96Z" fill="#263238"/><path d="M231.91,148.87a1.48,1.48,0,0,0-.76,1.84c.49,1.39,1.27,3.58,1.86,4.9a3.66,3.66,0,0,0,.73,1.18,1.18,1.18,0,0,0,1.23.34,1.32,1.32,0,0,0,.73-1.17,3.85,3.85,0,0,0-.26-1.46c-.42-1.3-1.13-3.25-1.74-4.84a1.35,1.35,0,0,0-1.79-.79Z" fill="#aa6550"/><path d="M230,151.44a1.49,1.49,0,0,0-.76,1.84c.49,1.39,1.28,3.58,1.87,4.9a3.64,3.64,0,0,0,.72,1.18,1.21,1.21,0,0,0,1.23.34,1.33,1.33,0,0,0,.74-1.17,4.05,4.05,0,0,0-.26-1.46c-.42-1.3-1.14-3.25-1.75-4.84a1.35,1.35,0,0,0-1.79-.79Z" fill="#aa6550"/><path d="M228.13,153.07a1.25,1.25,0,0,0-.69,1.59c.44,1.21,1.15,3.1,1.69,4.25a3.12,3.12,0,0,0,.65,1,1.13,1.13,0,0,0,1.12.3,1.15,1.15,0,0,0,.66-1,3.29,3.29,0,0,0-.24-1.27c-.37-1.12-1-2.81-1.57-4.18a1.24,1.24,0,0,0-1.62-.69Z" fill="#aa6550"/><path d="M225.69,153.62a1.25,1.25,0,0,0-.69,1.6c.44,1.21,1.15,3.11,1.69,4.26a3.19,3.19,0,0,0,.66,1,1.12,1.12,0,0,0,1.12.3,1.18,1.18,0,0,0,.67-1,3.44,3.44,0,0,0-.24-1.26c-.38-1.14-1-2.83-1.59-4.21a1.24,1.24,0,0,0-1.62-.69Z" fill="#aa6550"/><path d="M233.61,156.85a7.65,7.65,0,0,1-1.29-2.44,7.38,7.38,0,0,1-.81-2.64,7.47,7.47,0,0,1,1.28,2.44A7.67,7.67,0,0,1,233.61,156.85Z" fill="#724940"/><path d="M231.51,159a9.56,9.56,0,0,1-1.38-2.81,10,10,0,0,1-.91-3A9.52,9.52,0,0,1,230.6,156,10,10,0,0,1,231.51,159Z" fill="#724940"/><path d="M229.31,159.26a6.43,6.43,0,0,1-1.39-2.42,6.5,6.5,0,0,1-.72-2.7,9.71,9.71,0,0,1,1.2,2.5A9.86,9.86,0,0,1,229.31,159.26Z" fill="#724940"/><path d="M321.61,354.49l-6.69-54.19c4.36-10.27,5.93-20.53,4.66-26.9.08.67.11,1.49-.07-.38-1.08-11.28-10.72-19.58-10.72-19.58l-3.23-13.69-41.28,5.87,1.56,22.92-26.72,95.08L234.27,444l21.58,2.56s8.45-40.2,10.73-57a233.86,233.86,0,0,0,2.15-27.48L289,331.44c2.4,12.65,5.11,28.27,6.51,36.42a21.45,21.45,0,0,0,4.49,9.91L353,420V394.55C348,382.38,321.61,354.49,321.61,354.49Z" fill="#3a376f"/><path d="M269.58,262.62a9.57,9.57,0,0,1-.86-2.27,40.38,40.38,0,0,1-1.28-5.72,40.83,40.83,0,0,1-.46-5.85,9.89,9.89,0,0,1,.16-2.43,14.29,14.29,0,0,1,.21,2.42c.09,1.48.26,3.54.59,5.78s.78,4.26,1.13,5.71A15.26,15.26,0,0,1,269.58,262.62Z" fill="#455a64"/><path d="M271.49,247s.16-.15.53-.24a2.57,2.57,0,0,1,3,2.18,2.83,2.83,0,0,1-1.32,2.63,2.63,2.63,0,0,1-3.87-2.46,4.15,4.15,0,0,1,.46-1.53c.18-.33.31-.49.34-.48s0,.21-.15.56a4.79,4.79,0,0,0-.29,1.46,2.18,2.18,0,0,0,.91,1.81,2.11,2.11,0,0,0,2.34.2,2.4,2.4,0,0,0,1.11-2.14,2.14,2.14,0,0,0-1.1-1.67A3.12,3.12,0,0,0,271.49,247Z" fill="#455a64"/><path d="M298.63,258.09a2.45,2.45,0,0,1-.73.3,12.21,12.21,0,0,1-2.09.48,15.26,15.26,0,0,1-3.18.11,17.66,17.66,0,0,1-3.83-.74,17.35,17.35,0,0,1-3.55-1.63,15,15,0,0,1-2.53-1.94,10.5,10.5,0,0,1-1.43-1.61c-.3-.41-.45-.65-.42-.67s.75.84,2.09,2a17.5,17.5,0,0,0,2.53,1.81,17.23,17.23,0,0,0,7.18,2.3,16,16,0,0,0,3.1,0C297.54,258.34,298.6,258,298.63,258.09Z" fill="#455a64"/><path d="M311.9,299a3.67,3.67,0,0,1-.45.64l-1.36,1.76c-1.14,1.56-2.8,3.81-4.79,6.64-4,5.66-9.36,13.55-15.25,22.32l-15,22.48-4.57,6.81-1.26,1.84a6,6,0,0,1-.46.62,3.2,3.2,0,0,1,.38-.68c.29-.48.68-1.11,1.18-1.89l4.42-6.9c3.77-5.81,9-13.8,14.91-22.57s11.32-16.64,15.39-22.24c2-2.81,3.73-5,4.92-6.55l1.44-1.71A6.41,6.41,0,0,1,311.9,299Z" fill="#455a64"/><path d="M304.62,177.55c.09,0,.08-1,.36-2.69a19.05,19.05,0,0,1,2.16-6.08,10.24,10.24,0,0,1,4.39-4.52,6,6,0,0,1,2.58-.41,1.41,1.41,0,0,0-.71-.2,4.36,4.36,0,0,0-2,.28,9.86,9.86,0,0,0-4.69,4.6,16.68,16.68,0,0,0-2.08,6.28A8.45,8.45,0,0,0,304.62,177.55Z" fill="#263238"/><path d="M301.22,161.45l-21.63,3.39-3.85,3.37s-13.62,26.79-13.87,32.2c-.27,6,2.9,16.23,2.9,16.23l-3.11,23.67c-.46,2.72,1.29,5.33,2.46,5.33l37.36-5.06c4.87-1,6.87-3.55,6.57-6.39l-.55-5.28,15.95-54c.95,3.19-.53-8.61-7.65-11.26C312.78,162.52,305.8,160.48,301.22,161.45Z" fill="#fbd765"/><path d="M277.73,166.62s-6.66,5.18-13,11.08-23.11,17.7-23.11,17.7l-1.15-24.68L227.83,169s-6.2,30.76-2.27,39.26,8.64,8.85,21.71,4.6,16.8-6.13,16.8-6.13Z" fill="#fbd765"/><path d="M274.39,170.28s-.12.12-.3.38-.47.7-.78,1.15c-.66,1-1.61,2.47-2.73,4.31a69.14,69.14,0,0,0-7.26,15.22,34,34,0,0,0-1.12,16.78,22.74,22.74,0,0,0,1.57,4.88c.23.56.48,1,.62,1.25s.24.42.26.41-.26-.62-.7-1.74a25.41,25.41,0,0,1-1.4-4.87,35,35,0,0,1,1.25-16.56,74.84,74.84,0,0,1,7.08-15.18l2.6-4.39.69-1.2A2,2,0,0,0,274.39,170.28Z" fill="#263238"/><path d="M311.73,163.65s-6.73,8.91-7.1,17.09S316.71,238,316.71,238l10.92,44.75,13.59-5.06s-3.16-31.87-3.76-35.83c-1.26-8.24-6.63-24.31-7.37-33.6S326,181,324.26,176.84,322.52,163.41,311.73,163.65Z" fill="#fbd765"/><path d="M305.19,185.25a1.67,1.67,0,0,0,0,.49c0,.37.09.82.16,1.36.16,1.18.42,2.89.79,5,.75,4.2,1.93,10,3.35,16.31s2.81,12.07,3.86,16.2c.53,2.06,1,3.72,1.3,4.87.15.53.28,1,.39,1.32a2.32,2.32,0,0,0,.16.45,1.33,1.33,0,0,0-.07-.48l-.29-1.34c-.29-1.23-.67-2.89-1.14-4.91-1-4.22-2.28-9.92-3.72-16.22s-2.66-12.09-3.49-16.27l-.95-5-.25-1.35A2.14,2.14,0,0,0,305.19,185.25Z" fill="#263238"/><g opacity="0.3"><path d="M304.22,239.83c-2.15-2.17-2.6-5.47-2.93-8.52l-3.21-29.11c-.67-6-1.3-12.4,1-18a3,3,0,0,1,1.71-2,2.19,2.19,0,0,1,2.25.94c.52.69,2,1.69,2.19,2.53,2.18,8.65,3.12,17.17,5.3,25.82.58,2.29,1.33,2.2.83,4.51-.72,3.34-3.82,12.95-3.82,12.95s.44,3.49.57,5.53a5.28,5.28,0,0,1-3.85,5.39"/></g><path d="M306.22,190.08a3.62,3.62,0,0,0,.74.54,17.33,17.33,0,0,0,2.2,1.19,7.71,7.71,0,0,0,3.65.74,8.74,8.74,0,0,0,4.24-1.68,31.09,31.09,0,0,1,3.77-2.4,5.54,5.54,0,0,1,3.43-.57,3.86,3.86,0,0,1,2.1,1.07c.39.41.52.72.57.7a1.68,1.68,0,0,0-.42-.83,3.84,3.84,0,0,0-2.17-1.29,5.71,5.71,0,0,0-3.7.5,27.45,27.45,0,0,0-3.85,2.39,8.68,8.68,0,0,1-4,1.65,7.87,7.87,0,0,1-3.49-.61C307.38,190.69,306.27,190,306.22,190.08Z" fill="#fafafa"/><path d="M264.08,189a1.41,1.41,0,0,0,.19.36,6,6,0,0,0,.74.94,8.18,8.18,0,0,0,3.77,2.15,13.12,13.12,0,0,0,6.42.09,63.78,63.78,0,0,0,7.46-2.43,24.58,24.58,0,0,1,13.87-.94,35.81,35.81,0,0,1,5.55,1.87,1.59,1.59,0,0,0-.34-.23c-.24-.13-.58-.33-1.05-.54a21.33,21.33,0,0,0-4.08-1.45,23.47,23.47,0,0,0-6.39-.69,24.57,24.57,0,0,0-7.72,1.5,71.08,71.08,0,0,1-7.4,2.46,13.35,13.35,0,0,1-6.23,0,8.27,8.27,0,0,1-3.72-2C264.41,189.51,264.13,189,264.08,189Z" fill="#fafafa"/><path d="M256.14,184.7a5.11,5.11,0,0,0-.11,2.05,12.64,12.64,0,0,0,1.39,4.75,12.42,12.42,0,0,0,3.09,3.84,5.46,5.46,0,0,0,1.73,1.07,16.23,16.23,0,0,0-1.5-1.34,14.43,14.43,0,0,1-4.36-8.36C256.2,185.48,256.22,184.7,256.14,184.7Z" fill="#fafafa"/><g opacity="0.3"><path d="M270,176.84c-10.22,10.36-19,21.89-22.76,36,5.83-1.93,11.35-3.8,15-5.34,0,0-1.09-5.82-.43-9.25.81-4.19.81-7.7,8.2-21.42"/></g><path d="M241.85,195.45a37.24,37.24,0,0,0-2,3.2,31.58,31.58,0,0,0-1.19,3.62,7.73,7.73,0,0,1,3.23-6.82Z" fill="#263238"/><polygon points="256.14 233.72 249.18 293.2 175.57 284.4 182.53 224.92 256.14 233.72" fill="#fafafa"/><path d="M256.14,233.72l-.36,0-1-.11-4-.46-15.08-1.75-53.16-6.26.21-.17c-2.07,17.71-4.43,38-6.94,59.48h0l-.19-.24L249.2,293l-.2.16c2.14-17.9,3.91-32.75,5.14-43.13.63-5.19,1.12-9.26,1.46-12.05l.39-3.18c.09-.72.15-1.1.15-1.1s0,.36-.1,1.07-.2,1.78-.35,3.15c-.32,2.78-.78,6.84-1.36,12-1.2,10.41-2.91,25.3-5,43.26l0,.18-.18,0-73.62-8.76-.21,0,0-.21h0c2.53-21.48,4.91-41.77,7-59.47l0-.2.19,0,53.27,6.46,15,1.85,4,.5,1,.13Z" fill="#263238"/><polygon points="178.54 280.96 246.98 289.14 253.07 237.15 184.63 228.97 178.54 280.96" fill="#ebebeb"/><polygon points="178.54 280.96 206.23 251.5 218.67 273.49 229.98 263.88 246.98 289.14 178.54 280.96" fill="#e0e0e0"/><path d="M227.79,250.06A5.43,5.43,0,1,1,223,244,5.45,5.45,0,0,1,227.79,250.06Z" fill="#e0e0e0"/><polyline points="352.09 255.84 330.23 255.84 330.23 184.63 352.09 184.63" fill="#fafafa"/><path d="M352.09,184.63a1.93,1.93,0,0,1-.39,0l-1.14,0-4.38.05-15.95.09.2-.2c0,9.69,0,22.1.06,35.6s0,25.92-.06,35.61l-.2-.21,15.95.09,4.38.06,1.14,0a1.93,1.93,0,0,1,.39,0,1.93,1.93,0,0,1-.39,0l-1.14,0-4.38,0-15.95.09H330v-.2c0-9.69,0-22.11-.06-35.61s0-25.91.06-35.6v-.21h.2l15.95.08,4.38.06,1.14,0Z" fill="#263238"/><polygon points="352.09 251.07 333.85 251.34 333.85 188.72 352.09 188.46 352.09 251.07" fill="#ebebeb"/><polygon points="333.99 251.16 352.09 251.34 352.21 226.06 333.99 251.16" fill="#e0e0e0"/><polygon points="193.68 304.97 198.13 355.48 135.62 361.11 131.17 310.6 193.68 304.97" fill="#fafafa"/><path d="M193.68,305l-.3,0-.88.08-3.39.33-12.8,1.2-45.13,4.14.15-.18c1.33,15,2.86,32.27,4.47,50.51h0l-.19-.16,62.51-5.6-.14.16c-1.31-15.21-2.39-27.82-3.15-36.64-.37-4.41-.67-7.87-.87-10.24-.09-1.18-.17-2.08-.22-2.7l-.06-.94s0,.3.09.9.15,1.51.26,2.67c.21,2.36.53,5.81.94,10.2.79,8.84,1.94,21.48,3.31,36.72l0,.16h-.16l-62.5,5.66-.18,0,0-.19h0c-1.6-18.24-3.11-35.47-4.43-50.51l0-.16h.16l45.25-4,12.77-1.1,3.36-.29.86-.07Z" fill="#263238"/><polygon points="137.5 357.74 195.62 352.5 191.72 308.35 133.6 313.58 137.5 357.74" fill="#ebebeb"/><polygon points="137.5 357.74 155.38 328.46 169.46 344.5 177.18 334.55 195.62 352.5 137.5 357.74" fill="#e0e0e0"/><path d="M173,323.49a4.59,4.59,0,1,1-5-4.21A4.63,4.63,0,0,1,173,323.49Z" fill="#e0e0e0"/></svg>