<svg xmlns="http://www.w3.org/2000/svg" width="100" height="100" viewBox="0 0 100 100"><path d="M11.15,53.22V84.35H51.66V69.93c0-.26,0-.52,0-.78a1.54,1.54,0,0,1,1.54-1.56,1.5,1.5,0,0,1,1.56,1.52c0,.68,0,1.36,0,2V84.41c1,0,1.93,0,2.86,0,1.22,0,1.8.58,1.81,1.79a29.69,29.69,0,0,1-.08,3.89,7.72,7.72,0,0,1-7.87,6.79q-20.13,0-40.24,0a8.93,8.93,0,0,1-1.55-.14A7.74,7.74,0,0,1,3.32,89.2c0-1,0-1.94,0-2.92,0-1.32.57-1.86,1.92-1.87H8V52.34c0-1.79.45-2.24,2.24-2.24H23.77a1.64,1.64,0,0,1,1.77,1.07,1.55,1.55,0,0,1-1.64,2.05c-2.37,0-4.74,0-7.11,0Zm3,40.53c.11-1.28-.36-3,1.49-3,2.08-.07,1.54,1.79,1.69,3h28c.12-2.33.42-3,1.46-3,2.12,0,1.58,1.77,1.74,3,6.68.92,8.23-2.67,7.64-6.09H6.44c0,.64,0,1.22,0,1.79a4.64,4.64,0,0,0,4.24,4.35C11.82,93.81,13,93.75,14.2,93.75Z"/><path d="M50.08,40,30.55,56.12c.23.42.45.84.69,1.25q1.52,2.61,3,5.22c.7,1.21.58,2.14-.31,2.63s-1.72.1-2.42-1.11c-1.18-2-2.37-4.08-3.6-6.22C26,59,24,60.08,22.2,61.29a2.92,2.92,0,0,0-.8,3.85c1,1.85,2.06,3.68,3.17,5.48a3,3,0,0,0,4,1.13,1.4,1.4,0,0,0,.17-.09c6.38-4.3,13.76-6.3,20.81-9.07,3.65-1.43,7.34-2.76,11.11-4.17l-.53-1C58.08,53.9,56,50.33,54,46.76a1.59,1.59,0,0,1,.69-2.49c.83-.28,1.5,0,2.06,1q2.92,5.06,5.84,10.11c.5.88,1,1.74,1.51,2.62.78,1.4.49,2.23-1,2.79L43.83,68,40.1,69.44c1,1.71,1.95,3.34,2.85,5A4.66,4.66,0,0,1,34.83,79c-1-1.75-2-3.53-3.13-5.39-3,2-6,2.37-8.85-.18-.58.32-1.13.65-1.71.93a4.67,4.67,0,0,1-4.58-8.13,2.9,2.9,0,0,1,.51-.29c.82-.32,1.08-.78,1-1.77a5.88,5.88,0,0,1,2.49-5.59,2.23,2.23,0,0,1,.41-.27c6.77-3.29,12.19-8.45,17.94-13.13,3.45-2.81,6.87-5.66,10.3-8.49,1.24-1,2.12-.87,2.93.5.43.72.87,1.45,1.27,2.19A1.57,1.57,0,1,1,50.67,41Zm-13,30.57L34.4,72.12c1.09,1.89,2.1,3.69,3.17,5.46a1.53,1.53,0,0,0,2.66-1.52C39.24,74.25,38.17,72.48,37.08,70.58ZM21,70.77l-1.5-2.6c-2,1-2.56,1.82-2,2.86S19.21,72,21,70.77Z"/><path d="M82.85,3.31h9.06a4.67,4.67,0,0,1,5,4.93q0,9.11,0,18.22A4.67,4.67,0,0,1,92,31.38q-9.15,0-18.32,0a4.67,4.67,0,0,1-4.86-4.84c0-2.92,0-5.85,0-8.77,0-1.24.56-1.95,1.53-2s1.59.71,1.59,2v8.48c0,1.45.54,2,2,2H91.77c1.46,0,2-.54,2-2V8.43c0-1.47-.53-2-2-2H73.93c-1.47,0-2,.53-2,2,0,.84,0,1.69,0,2.53a1.56,1.56,0,1,1-3.1,0c0-1,0-2,0-3A4.64,4.64,0,0,1,73.5,3.32C76.62,3.29,79.73,3.31,82.85,3.31Z"/><path d="M68.81,65.7c0-3,0-6,0-9.06a4.68,4.68,0,0,1,5-5h18a4.68,4.68,0,0,1,5,5q0,4.34,0,8.67c0,1.23-.59,1.94-1.56,1.94s-1.55-.71-1.56-1.94c0-2.86,0-5.72,0-8.57,0-1.4-.55-1.95-2-1.95H73.88c-1.4,0-1.95.54-1.95,1.94V74.65c0,1.4.55,1.95,1.94,2H91.8c1.4,0,2-.55,2-1.94,0-.87,0-1.75,0-2.63a1.55,1.55,0,0,1,1.54-1.66A1.54,1.54,0,0,1,96.87,72c0,1.11,0,2.21,0,3.31a4.56,4.56,0,0,1-4.41,4.38q-9.6.08-19.19,0a4.57,4.57,0,0,1-4.44-4.65C68.79,71.93,68.81,68.82,68.81,65.7Z"/><path d="M25.15,31.48q0,6,0,11.89c0,1.53-.52,2.05-2,2.05H5.36c-1.53,0-2-.52-2-2.05q0-12,0-24c0-1.53.51-2,2-2H23.1c1.53,0,2,.52,2,2Q25.15,25.43,25.15,31.48ZM22,20.54H6.51V42.25H22Z"/><path d="M28.27,15.77A14,14,0,1,1,42.13,29.82,14,14,0,0,1,28.27,15.77Zm24.94,0a10.91,10.91,0,1,0-11,10.92A10.93,10.93,0,0,0,53.21,15.78Z"/><path d="M89.08,65.66a6.24,6.24,0,1,1-6.29-6.2A6.25,6.25,0,0,1,89.08,65.66Zm-6.24-3.08A3.11,3.11,0,1,0,86,65.66,3.13,3.13,0,0,0,82.84,62.58Z"/><path d="M82.85,15.75c2.43.12,3.08.46,3.11,1.56s-.64,1.48-3.11,1.65c0,1.47,0,2.95,0,4.43a1.59,1.59,0,0,1-1.28,1.72,1.54,1.54,0,0,1-1.83-1.62c0-1.49,0-3,0-4.52-1.27-.19-3.09.36-3.06-1.66s1.78-1.41,3.06-1.56c0-.6,0-1.14,0-1.68a4.67,4.67,0,0,1,4.51-4.51c1,0,2.08,0,3.11,0a1.58,1.58,0,0,1,1.73,1.58,1.6,1.6,0,0,1-1.78,1.53H85c-1.64,0-2.12.5-2.11,2.17Z"/><path d="M67.34,48.54a1.64,1.64,0,0,1-1.8-1.41,1.58,1.58,0,0,1,1.39-1.7q3.76-.78,7.54-1.52a1.61,1.61,0,0,1,2.12,1.16c.21,1-.34,1.7-1.52,2-2.42.51-4.83,1-7.25,1.47A3.89,3.89,0,0,1,67.34,48.54Z"/><path d="M56.16,34.64a9.26,9.26,0,0,1,.58-1.18c1.48-2,3-4,4.48-6a1.56,1.56,0,1,1,2.48,1.87c-1.48,2-3,4-4.48,6a1.41,1.41,0,0,1-1.86.59A5.85,5.85,0,0,1,56.16,34.64Z"/><path d="M69,34.31a6.25,6.25,0,0,1,1.25,1.27,1.36,1.36,0,0,1-.57,1.78c-2,1.52-4,3-6.05,4.54a1.56,1.56,0,1,1-1.87-2.48c1.31-1,2.64-2,4-3,.67-.5,1.33-1,2-1.5A11.15,11.15,0,0,1,69,34.31Z"/><path d="M14.16,32.94c-1,0-1.94,0-2.92,0a1.56,1.56,0,1,1,0-3.11c2,0,4,0,5.95,0a1.56,1.56,0,0,1,1.68,1.52,1.58,1.58,0,0,1-1.72,1.59C16.18,33,15.17,32.94,14.16,32.94Z"/><path d="M14.21,39.18c-1,0-2,0-2.92,0a1.57,1.57,0,1,1,0-3.11c1.94,0,3.89,0,5.84,0a1.56,1.56,0,0,1,1.73,1.57,1.58,1.58,0,0,1-1.77,1.54Z"/><path d="M15.73,26.7c-.52,0-1,0-1.56,0a1.54,1.54,0,0,1-1.49-1.51,1.52,1.52,0,0,1,1.51-1.58c1.07,0,2.15,0,3.22,0a1.55,1.55,0,0,1,0,3.09C16.83,26.73,16.28,26.7,15.73,26.7Z"/><path d="M37.62,15.77c0-1.46,0-2.92,0-4.38s1.09-2.23,2.49-1.54c3,1.46,5.94,2.92,8.86,4.46A2.46,2.46,0,0,1,50,15.78c.16.73-.43,1.22-1.08,1.55-3,1.47-5.91,3-8.88,4.42a1.56,1.56,0,0,1-2.45-1.5C37.6,18.76,37.62,17.26,37.62,15.77Zm3.15,2.16L45,15.79l-4.26-2.13Z"/></svg>