<svg xmlns="http://www.w3.org/2000/svg" width="100" height="100" viewBox="0 0 100 100"><path d="M64.58,98.21a12,12,0,0,1-5.1-2.41A9.58,9.58,0,0,1,56,88.69c-.1-4.1,0-8.21,0-12.31a2,2,0,0,1,2.24-2.22c.53,0,1.06,0,1.67,0V65.79c-2.49-.9-5-1.69-7.35-2.67a28.8,28.8,0,0,1-7-4.35,3,3,0,0,0-1.66-.62c-9.59,0-19.18,0-28.76,0h-1.2v-4h1q25.34,0,50.67,0a20.06,20.06,0,0,0,20-15.82c2.36-10.11-4.2-21-14.28-23.49A25.07,25.07,0,0,0,65.45,14c-16.93,0-33.85,0-50.77,0h-.8V10H15c9.59,0,19.18,0,28.77,0a3,3,0,0,0,1.76-.61A31.08,31.08,0,0,1,67.13,2,31.26,31.26,0,0,1,92.35,15.89,30.53,30.53,0,0,1,98,35.18a31.36,31.36,0,0,1-11,23,30.88,30.88,0,0,1-14,7.08c-.76.16-1.07.43-1,1.28.07,2.47,0,4.94,0,7.56.6,0,1.15,0,1.7,0,1.46,0,2.31.72,2.32,2.14,0,4.26.14,8.53-.1,12.77a9.71,9.71,0,0,1-8.24,9c-.14,0-.28.11-.43.16ZM52,58.13a27.64,27.64,0,0,0,36.19-7,28,28,0,0,0-3.05-37.6C74.92,4,60.32,4.4,51.77,10h1c4.14,0,8.27,0,12.41,0A24,24,0,0,1,77,12.69c7.67,4.14,12.1,10.59,12.92,19.25A23,23,0,0,1,83.2,50.79,22.54,22.54,0,0,1,67.65,58c-4.87.22-9.77.11-14.65.15Zm8,20.08c0,3.5,0,6.91,0,10.32a5.87,5.87,0,0,0,6.07,5.65c3.43-.07,5.84-2.67,5.89-6.25,0-2,0-4.07,0-6.11V78.21ZM64,66.1v8H68v-8Z"/><path d="M1.79,27.16a9.15,9.15,0,0,1,2-4.37,7.3,7.3,0,0,1,4.83-2.62c2.65-.23,5.32-.48,7.92.36A7.75,7.75,0,0,1,21.74,28H17.89c0-.16-.09-.33-.12-.5a3.75,3.75,0,0,0-3.41-3.35,30.53,30.53,0,0,0-5.06,0,3.88,3.88,0,0,0-3.49,4.07A4,4,0,0,0,9.69,32c1.78.08,3.58,0,5.34.18A7.94,7.94,0,0,1,14.54,48a27.38,27.38,0,0,1-6.9-.32c-3.21-.7-5.06-3-5.71-6.27a1.56,1.56,0,0,0-.14-.33v-.94H5.72c0,.15.1.27.13.39a4,4,0,0,0,4.32,3.56,30.33,30.33,0,0,0,3.57,0,6.14,6.14,0,0,0,2.51-.85,3.77,3.77,0,0,0,1.36-4.35,4,4,0,0,0-3.92-2.78C12.13,36,10.55,36.08,9,36A7.67,7.67,0,0,1,3.79,33.3a9.74,9.74,0,0,1-2-4.26Z"/><path d="M1.79,54H9.73v4.14H1.79Z"/><path d="M1.79,10.05h8V14h-8Z"/><path d="M31.94,32H45.85v4H31.93v8H47.84v4c-.32,0-.62,0-.93,0H30.56c-2.06,0-2.69-.63-2.69-2.69V22.73c0-2.06.65-2.71,2.69-2.71H47.82V24H31.94Z"/><path d="M70.12,34a47.7,47.7,0,0,1-.48,6.35A9.87,9.87,0,0,1,58.71,48a10.09,10.09,0,0,1-8.78-9.73q-.07-4.22,0-8.45A10,10,0,0,1,69.88,29c.15,1.64,0,3.31,0,5Zm-4.2.07h0c0-1.59.09-3.19,0-4.78A6,6,0,0,0,60,24c-2.91-.05-5.76,2.26-5.92,5.09a86.92,86.92,0,0,0,0,9.55,5.81,5.81,0,0,0,6,5.4,5.94,5.94,0,0,0,5.86-5.68C66,37,65.92,35.51,65.92,34.07Z"/><path d="M80,40H76.08V28.11H80Z"/></svg>