<svg xmlns="http://www.w3.org/2000/svg" width="100" height="100" viewBox="0 0 100 100"><path d="M85.26,14.52a22.75,22.75,0,0,1,2.54.14,7.31,7.31,0,0,1,6.29,7.54q0,19.27,0,38.55V86.14c0,4.85-3.08,7.92-7.93,7.92-21.13,0-42.26-.06-63.39,0-5,0-8.53-3.6-8.19-8.18,0-.18,0-.37,0-.7H13.14a7.32,7.32,0,0,1-7.38-7.36q0-32.39,0-64.77a7.27,7.27,0,0,1,7.37-7.35q32.38,0,64.77,0a7.3,7.3,0,0,1,7.35,7.38C85.26,13.58,85.26,14,85.26,14.52Zm-3,6H8.69v.61q0,28.29,0,56.57a4.4,4.4,0,0,0,4.67,4.58q32.1,0,64.22,0a4.43,4.43,0,0,0,4.72-4.72q0-10.4,0-20.78c0-.23,0-.45-.06-.68L82,56a7,7,0,0,1-.61.8Q74.7,63.52,67.94,70.23a5.23,5.23,0,0,1-1.73,1.13C62.1,73,58,74.53,53.87,76.12a1.73,1.73,0,0,1-2-.17c-.63-.62-.42-1.32-.14-2,1.59-4.11,3.14-8.23,4.76-12.33a5.18,5.18,0,0,1,1.13-1.74c7.68-7.72,15.36-15.44,23.11-23.07a5,5,0,0,0,1.67-4.06C82.23,28.67,82.31,24.63,82.31,20.52ZM91.15,47c-1.84,1.85-3.48,3.54-5.17,5.17A2.22,2.22,0,0,0,85.24,54c0,7.76,0,15.52,0,23.27,0,5-3.05,8-8,8H17.57c-.48,4,2,6,5.41,5.93,21.07-.09,42.14,0,63.21,0,3.19,0,5-1.77,5-5V47ZM82.31,17.49V13.76c0-3.37-1.71-5.08-5.1-5.08H13.81c-.31,0-.61,0-.92,0a4.1,4.1,0,0,0-4,3.24,41.16,41.16,0,0,0-.06,5.56ZM78,43.85,60.5,61.3l1.69,2.06L79.71,45.84ZM66.31,67.37,83.89,49.79,82.1,48,64.49,65.64Zm13.9-25.88,6,6.11,3.91-3.92-6-6.06ZM85.3,26.35h5.85V22.48c0-3.5-2.31-5.43-5.85-4.86Zm0,3c0,1.55,0,3,0,4.48a1.81,1.81,0,0,0,.46,1.1c1.6,1.65,3.24,3.27,4.87,4.89a4.17,4.17,0,0,0,.46.33V29.31ZM58.57,64.22c-.29.75-.64,1.56-.91,2.4a.93.93,0,0,0,.18.77c.84.89,1.71,1.75,2.59,2.6a.75.75,0,0,0,.61.18c.89-.29,1.75-.65,2.54-1ZM56.33,70l-.87,2.31,2.26-.9Z"/><path d="M27.87,26.35c3.77,0,7.55,0,11.32,0,1.39,0,1.89.5,1.89,1.87q0,6.95,0,13.89c0,1.39-.5,1.9-1.87,1.9H16.48c-1.39,0-1.89-.5-1.9-1.88V28.24c0-1.39.5-1.89,1.88-1.89C20.26,26.34,24.07,26.35,27.87,26.35ZM17.57,41h20.5V29.34H17.57Z"/><path d="M20.51,52.78V50h38.2v2.83Z"/><path d="M52.83,55.85v2.83H14.63V55.85Z"/><path d="M46.93,61.74v2.83H14.63V61.74Z"/><path d="M14.62,70.44V67.61H46.93v2.83Z"/><path d="M14.62,76.33V73.5H46.9v2.83Z"/><path d="M73.44,33.77V36.6H47.05V33.77Z"/><path d="M76.38,27.88v2.83H52.91V27.88Z"/><path d="M47.05,39.61H67.52v2.87H47.05Z"/><path d="M49.87,30.72H47V27.87h2.83Z"/><path d="M17.48,52.8H14.65V50h2.83Z"/><path d="M14.66,11.64h2.8v2.87h-2.8Z"/><path d="M23.38,11.7v2.81H20.52V11.7Z"/><path d="M29.26,14.53H26.42V11.68h2.84Z"/></svg>