<svg xmlns="http://www.w3.org/2000/svg" width="100" height="100" viewBox="0 0 100 100"><path d="M38.55,88.83v1.93a3.58,3.58,0,0,1-2,3.4,3.51,3.51,0,0,1-3.83-.26c-2.33-1.54-4.64-3.11-7-4.63a2.9,2.9,0,0,0-1.4-.42c-2.08,0-4.15,0-6.22,0-4.5,0-7.13-2.3-7.69-6.75L5.91,45.36Q5.7,43.66,5.46,42a6.88,6.88,0,0,1,6.84-7.92c5,0,10,0,15.05,0h1V31.15h-1c-2.94,0-5.88,0-8.83,0a4.31,4.31,0,0,1-4.55-4.59q0-8.39,0-16.76A4.32,4.32,0,0,1,18.6,5.2H41.21a4.32,4.32,0,0,1,4.55,4.51c0,2.31,0,4.61,0,7H65.94c0-1.23,0-2.48,0-3.72a11.29,11.29,0,0,1,.34-2.67A7.08,7.08,0,0,1,73,5.21c1.86,0,3.73,0,5.59,0a7.21,7.21,0,0,1,7.55,7.52q0,10.05,0,20.1V34h1.7a6.93,6.93,0,0,1,6.87,8.06c-1,7.47-1.87,14.95-2.81,22.42-.77,6.17-1.53,12.33-2.34,18.49a6.79,6.79,0,0,1-6.77,5.81c-5.4,0-10.81,0-16.21,0h-28Zm-2.88-2.89H82.26c2.67,0,4.18-1.25,4.52-3.88.76-5.89,1.48-11.79,2.21-17.68.93-7.45,1.76-14.91,2.83-22.33.41-2.84-1.44-5.92-5.7-5,0,4.13,0,8.27,0,12.41a3,3,0,0,1-.27,1.29c-2.08,4.22-4.2,8.43-6.3,12.64a3.92,3.92,0,0,1-3.82,2.35c-3.48,0-7,0-10.45,0h-.71V62.85h7.65c-.17-.37-.29-.64-.42-.91-1.83-3.67-3.68-7.34-5.49-11A3.29,3.29,0,0,1,66,49.46c0-3.84,0-7.69,0-11.53V37c-.23,0-.35,0-.46,0H12.24a4,4,0,0,0-3.93,4.5c.22,2,.51,4.11.77,6.16q1.22,9.78,2.44,19.56c.63,5,1.22,10,1.89,15,.33,2.53,1.85,3.78,4.41,3.78s5,0,7.47,0a2.72,2.72,0,0,1,1.33.4c2.46,1.6,4.89,3.27,7.35,4.87a1.67,1.67,0,0,0,1.26.28c.26-.11.4-.74.42-1.15C35.7,88.93,35.67,87.49,35.67,85.94ZM29.9,8.09H18.82c-1.41,0-1.89.48-1.89,1.89q0,8.2,0,16.4c0,1.41.48,1.89,1.89,1.89H41c1.41,0,1.89-.48,1.89-1.89q0-8.2,0-16.4c0-1.41-.48-1.89-1.89-1.89ZM45.76,19.66v6.72c0,3-1.76,4.77-4.74,4.77-2.82,0-5.64,0-8.47,0H31.4V34H65.89V19.66Zm37.47-.07c0-2.58.07-5.06,0-7.54A4.21,4.21,0,0,0,79,8.1q-3-.06-6,0a4.29,4.29,0,0,0-4.19,4.21c0,1.17,0,2.34,0,3.51v3.77Zm-8.7,28.82V28.34H68.87V48.41Zm3-20.1V48.38h5.65V28.31ZM69.79,51.38c.1.24.17.43.26.61,1.66,3.33,3.3,6.66,5,10,.19.37.67.82,1,.81s.79-.48,1-.86c1.68-3.28,3.31-6.58,5-9.88a6.82,6.82,0,0,0,.25-.65Zm-.93-26.06H83.17V22.55H68.86Z"/><path d="M23,70.16a27.86,27.86,0,0,1-3.06-.24A7.1,7.1,0,0,1,14.05,63c0-2,0-4,0-6a7.21,7.21,0,0,1,7.07-7.09c3.06-.06,6.14.05,9.18-.21a28.14,28.14,0,0,0,15.08-6,1.94,1.94,0,0,0,.57-.86,4.39,4.39,0,0,1,4.79-3,4.33,4.33,0,0,1,3.66,4.36c0,2.88,0,5.76,0,8.65C58,54,60.15,56.25,60.13,60s-2.19,6-5.73,7.09c0,2.94,0,5.89,0,8.83a4.3,4.3,0,0,1-7.66,2.61,2.61,2.61,0,0,1-.59-1,3,3,0,0,0-1.48-1.83A30,30,0,0,0,34.28,71V83a5.34,5.34,0,0,1-.68.09c-2.34,0-4.68,0-7,0-.56,0-.76-.16-.88-.72-.85-3.95-1.75-7.9-2.64-11.85C23,70.39,23,70.28,23,70.16Zm5.52-2.91a32.94,32.94,0,0,1,17.2,5.64V47.08a33,33,0,0,1-17.2,5.66Zm23-7.22V44.8a4.49,4.49,0,0,0,0-.9,1.38,1.38,0,0,0-1.37-1.2,1.42,1.42,0,0,0-1.45,1.22,5.44,5.44,0,0,0,0,.81V75.27a4.3,4.3,0,0,0,0,.72,1.4,1.4,0,0,0,1.39,1.29A1.41,1.41,0,0,0,51.51,76a7.27,7.27,0,0,0,0-.81Zm-26,7.14V52.8c-1.6,0-3.16-.07-4.71,0a3.84,3.84,0,0,0-3.47,2.86h5.29V58.6H17v2.86h5.67v2.85H17.33a3.84,3.84,0,0,0,3.41,2.84C22.31,67.26,23.9,67.17,25.52,67.17Zm5.78,13V70.32L25.92,70l2.25,10.11ZM54.45,63.92a4.09,4.09,0,0,0,2.83-4.23,3.91,3.91,0,0,0-2.83-3.58Z"/><path d="M64.54,71.46V68.69H84.61v2.77Z"/><path d="M64.54,77.23V74.46H84.61v2.77Z"/><path d="M64.54,80.21h2.78V83H64.54Z"/><path d="M70.28,83V80.25h2.8V83Z"/><path d="M78.9,80.25V83H76.09V80.25Z"/><path d="M84.64,80.24V83H81.87V80.24Z"/><path d="M22.69,18.19c0-1.14,0-2.28,0-3.42A3.72,3.72,0,0,1,28,11.34c2.42,1.11,4.82,2.3,7.16,3.58a3.69,3.69,0,0,1,0,6.5c-2.36,1.3-4.78,2.5-7.23,3.62a3.72,3.72,0,0,1-5.27-3.42C22.67,20.48,22.69,19.33,22.69,18.19Zm2.89-.1c0,1.08,0,2.17,0,3.25s.62,1.39,1.55.93c2.13-1,4.25-2.09,6.35-3.2a1.35,1.35,0,0,0,.68-.91c0-.28-.34-.7-.63-.86C31.37,16.18,29.2,15.1,27,14c-.85-.41-1.42,0-1.44.91S25.58,17,25.58,18.09Z"/></svg>