<svg xmlns="http://www.w3.org/2000/svg" width="100" height="100" viewBox="0 0 100 100"><path d="M98.21,40.87c-2.42,2.89-4.8,5.82-7.28,8.66-5.32,6.09-10.69,12.13-16,18.2a2.88,2.88,0,0,0-.65,1.39A11.21,11.21,0,0,1,62.92,79c-3.51.06-7,0-10.53,0-.9,0-1.71-.18-2-1.17s.3-1.59,1.07-2.06a4.23,4.23,0,0,0,2-3.88,16.7,16.7,0,0,1,.62-6.13,11.16,11.16,0,0,1,9.35-7.55,2.08,2.08,0,0,0,1-.39c2.83-2.47,5.64-5,8.4-7.39V34.11H76V47.62c.49-.41.8-.66,1.09-.92,4.07-3.58,8.24-7.05,12.16-10.78,2.76-2.64,7.12-2.62,9,1.57ZM72.76,65.3l.31-.36q10.64-12,21.26-24.1a4.49,4.49,0,0,0,.66-.91,1.84,1.84,0,0,0-1-2.54,2.18,2.18,0,0,0-2.29.69Q79.73,48.63,67.78,59.15a7.79,7.79,0,0,1-.69.47Zm-17,10.38c2.77,0,5.37.11,7.95,0A7.69,7.69,0,0,0,71,69a1.27,1.27,0,0,0-.27-1c-2-2.11-4.13-4.18-6.23-6.24a1.13,1.13,0,0,0-.79-.34,7.71,7.71,0,0,0-4.06,1.76,8.26,8.26,0,0,0-2.94,6.62C56.68,71.76,56.9,73.75,55.81,75.68Z"/><path d="M31.48,98.21a9.32,9.32,0,0,1-4.14-2c-.58-.56-1.08-1.2-1.72-1.91l2.85-1.67C29.92,94.94,32.19,95,34.58,95c11,0,21.93,0,32.89,0,2.71,0,4.87-1.52,5.13-3.86a54.48,54.48,0,0,0,0-5.73H43.94v-3.2H72.71V75.85H75.9c0,.24.07.48.07.72,0,4.39,0,8.77,0,13.16a8,8,0,0,1-4.6,7.67,17,17,0,0,1-2.47.81Z"/><path d="M73.22,4l-2.1,2.38a6.37,6.37,0,0,0-4.46-1.22q-16.77,0-33.55,0c-2.63,0-4.51,1.29-5.07,3.6a17.07,17.07,0,0,0-.25,2.77H53.42v3.23H27.92v8.56c.88-.12,1.75-.19,2.58-.39a1,1,0,0,0,.53-.76c0-1.34,0-2.68,0-4.11h3.2c0,1.36,0,2.7,0,4,0,.64.21.84.84.91a20.71,20.71,0,0,1,18.2,18.2c.07.62.26.87.92.85,1.33-.05,2.67,0,4.06,0v3.21c-1.4,0-2.77,0-4.13,0-.57,0-.78.2-.83.74A20.69,20.69,0,0,1,34.6,64.4c-.06,0-.12,0-.3.1v4.75H31.06c0-1.18-.06-2.39,0-3.6.06-.92-.19-1.23-1.18-1.36A20.66,20.66,0,0,1,12,46c0-.22-.06-.43-.11-.76H7.05V42.06h4.8A22.11,22.11,0,0,1,14,34.42a20.48,20.48,0,0,1,9.8-9.6,1.26,1.26,0,0,0,.86-1.33c0-4.61,0-9.21,0-13.82A8,8,0,0,1,33,2c6.14,0,12.28,0,18.42,0H67.55A8.22,8.22,0,0,1,73.22,4ZM27.41,46.56c-4.2-4.17-3-9.35-.35-11.91A8,8,0,0,1,38,34.44c3.48,3.06,3.47,7.41-.07,12.14a11.48,11.48,0,0,1,6,10.53c3.19-2.07,6.42-8.3,6.14-11.87H47.14V42h3c-.71-9.26-8.92-15.65-15.88-15.77v2.91H31V26.23c-8.58.37-15.69,8.39-15.77,15.85h2.89v3.2H15.09a18,18,0,0,0,6.31,12C21.44,52.41,23.39,48.92,27.41,46.56ZM31.08,61.2v-3H34.3v3a16.22,16.22,0,0,0,6-1.69.84.84,0,0,0,.35-.65c0-1.16,0-2.32-.13-3.47a8,8,0,0,0-6.29-6.76,8.17,8.17,0,0,0-8.51,3.84c-1.21,2.07-1.11,4.32-1.08,6.57a.74.74,0,0,0,.34.49A16.22,16.22,0,0,0,31.08,61.2Zm1.53-16a4.82,4.82,0,0,0,4.85-4.73,4.89,4.89,0,0,0-4.83-4.87,4.82,4.82,0,0,0-4.77,4.81A4.75,4.75,0,0,0,32.61,45.24Z"/><path d="M75.94,30.84H59.13c-2,0-2.44-.48-2.44-2.45V10.82c0-2,.47-2.46,2.42-2.46H92.83c1.9,0,2.38.48,2.38,2.4V28.51c0,1.84-.5,2.33-2.36,2.33ZM60,11.6v16h32V11.6Z"/><path d="M24.63,74.15v-8h3.18v8h1.12c3.23,0,6.45,0,9.68,0,1.47,0,2.06.58,2.07,2q0,6,0,11.93c0,1.47-.58,2-2.06,2.05H4.22c-1.49,0-2-.57-2-2q0-6,0-11.94c0-1.47.58-2,2.06-2h20.4ZM37.41,86.91V77.4h-32v9.51Z"/><path d="M11.79,24.41H4.37c-1.67,0-2.2-.54-2.21-2.19V10.56c0-1.65.56-2.2,2.21-2.2H19.22c1.65,0,2.19.54,2.19,2.2q0,5.82,0,11.66c0,1.67-.51,2.18-2.19,2.19ZM5.42,11.62v9.49H18.14V11.62Z"/><path d="M48.78,88.64h3v3.11h-3Z"/><path d="M63.11,21.25H88.73v3.11c-.34,0-.64.05-1,.05-7.86,0-15.72,0-23.59,0-.84,0-1.19-.21-1.09-1.09A20.59,20.59,0,0,0,63.11,21.25Z"/><path d="M88.75,14.77v3.16h-16V15.29c0-.68.5-.51.88-.51H88.75Z"/><path d="M63.2,14.81h6.25v3.11H63.2Z"/><path d="M34.21,80.62v3.07H19.89V80.62Z"/><path d="M16.55,83.71H8.63v-3.1h7.92Z"/><path d="M14.9,17.93H8.62V14.84H14.9Z"/></svg>