<svg xmlns="http://www.w3.org/2000/svg" width="100" height="100" viewBox="0 0 100 100"><path d="M22.7,43.07v-.93c0-1.77.39-2.14,2.19-2.14H40.17c-.79-1-1.42-1.85-2.15-2.64a1.51,1.51,0,0,0-1-.23H11.91c-2.63,0-3.62-1-3.62-3.66V14.54c0-2.28,1.09-3.37,3.37-3.37H42.37c2.28,0,3.4,1.1,3.39,3.35v25l4.07-3.46q6.29-5.34,12.56-10.68a3.16,3.16,0,0,0,.83-1.21A4.4,4.4,0,0,1,68,21.3a4.29,4.29,0,0,1,3.72,4.21c0,4.23,0,8.47,0,12.7V63.06H88.6a2.94,2.94,0,0,1,3.29,3.27V85.79A2.91,2.91,0,0,1,88.64,89h-31a2.92,2.92,0,0,1-3.23-3.23q0-9.19,0-18.38a1.69,1.69,0,0,0-.64-1.46c-2.7-2.25-5.37-4.54-8-6.8a1.27,1.27,0,0,0-.68-.38c-1.88,0-3.77,0-5.75,0,0,1.79,0,3.49,0,5.19,0,.2.29.4.46.58a7,7,0,0,1,1.14,1.25c.75,1.41,1.45,2.87,2.09,4.34a6.1,6.1,0,0,1,.23,3.8c-.73,3.22-1.45,6.43-2.15,9.65a4.23,4.23,0,0,1-4.48,3.71c-3.09,0-6.18,0-9.28,0a3.79,3.79,0,0,1-3.61-2.08,1,1,0,0,0-.75-.48c-2,0-4,0-6,0-.09.41-.15.79-.25,1.15A4.33,4.33,0,0,1,12.19,89a4.26,4.26,0,0,1-3.88-4.06q-.06-9.06,0-18.11a4.27,4.27,0,0,1,3.89-4.06,4.35,4.35,0,0,1,4.56,3c.09.29.15.58.25,1h3.39a21.1,21.1,0,0,1,2.25,0,6.63,6.63,0,0,0,6-2,6.93,6.93,0,0,1,1.94-1v-5H27.48c-1.06,0-2.11,0-3.16,0a1.46,1.46,0,0,1-1.61-1.62c0-.47,0-.94,0-1.24a17.34,17.34,0,0,1-2.83-.29A4.16,4.16,0,0,1,17,51.65c0-1.44,0-2.88,0-4.32A4.3,4.3,0,0,1,22.19,43C22.33,43,22.48,43,22.7,43.07ZM11.19,34.23h1.13c8.38,0,16.75,0,25.12,0a3.43,3.43,0,0,1,3,1.42c.75,1,1.55,2,2.43,3V14.12H11.19ZM89,66H87.84c-8.29,0-16.57,0-24.86,0a3.78,3.78,0,0,1-3.37-1.66c-.67-.94-1.44-1.8-2.24-2.81V86.08H89ZM54.41,62.71v-.87A2.94,2.94,0,0,1,59.83,60c.72.89,1.41,1.8,2.15,2.66a4.16,4.16,0,0,0,1,.58V28.8c-.29.23-.51.38-.71.55Q55,35.49,47.78,41.61a1.47,1.47,0,0,0-.58,1.29c0,4.17,0,8.34,0,12.52a2.31,2.31,0,0,0,1,2C50.21,59.12,52.22,60.86,54.41,62.71ZM17,81.8h6a3.23,3.23,0,0,1,3,1.73,1.49,1.49,0,0,0,1.57.87c2.88,0,5.76,0,8.64,0,1.49,0,1.81-.29,2.11-1.75q1-4.69,2-9.39a3.82,3.82,0,0,0-.4-2.69c-.5-1-1-2-1.42-3a1,1,0,0,0-1.13-.77,24.66,24.66,0,0,1-3.33,0A6.89,6.89,0,0,0,28,68.92,3,3,0,0,1,26,69.6c-2.69.07-5.39,0-8.1,0H17Zm8.67-38.88V55.78H44.28V42.92ZM68.8,63c0-.23,0-.34,0-.46V25.92c0-.15,0-.3,0-.45a1.45,1.45,0,0,0-1.46-1.31A1.39,1.39,0,0,0,66,25.44a5.33,5.33,0,0,0,0,.8V63ZM14.06,76.13q0-4.2,0-8.38c0-1.14-.54-1.8-1.44-1.8s-1.43.66-1.44,1.8V84.32c0,1.14.54,1.8,1.44,1.8s1.44-.66,1.44-1.8Q14.07,80.23,14.06,76.13ZM22.7,49.42V47.25a1.46,1.46,0,0,0-1.48-1.48,1.43,1.43,0,0,0-1.39,1.48q0,2.11,0,4.23a1.43,1.43,0,1,0,2.86,0C22.72,50.8,22.7,50.11,22.7,49.42Zm10.86,14.3h2.77V58.78H33.56Z"/><path d="M83.24,49.3c0,2.85,0,5.7,0,8.56,0,1.26-1.17,2-2.11,1.37a1.92,1.92,0,0,1-.73-1.32c0-5.71,0-11.41,0-17.12a1.4,1.4,0,0,1,1.45-1.5,1.42,1.42,0,0,1,1.41,1.54C83.25,43.65,83.24,46.48,83.24,49.3Z"/><path d="M74.59,49.31c0-1.56,0-3.12,0-4.68,0-1.08.53-1.72,1.4-1.74s1.47.65,1.47,1.76q0,4.74,0,9.46c0,1.07-.54,1.72-1.41,1.74s-1.46-.65-1.46-1.77C74.59,52.49,74.59,50.9,74.59,49.31Z"/><path d="M26.37,18.38h8.74c1.31,0,2,.48,2,1.42s-.67,1.46-2,1.46H17.41c-1.23,0-1.89-.5-1.91-1.42s.67-1.46,2-1.46Z"/><path d="M26.25,28.47H17.33c-1.15,0-1.8-.52-1.83-1.41s.66-1.47,1.86-1.47c6,0,12,0,17.92,0,1.15,0,1.81.51,1.83,1.4s-.66,1.48-1.85,1.48Z"/><path d="M73.84,74.59H64.75c-1.31,0-2.11-1.08-1.49-2a1.91,1.91,0,0,1,1.36-.79c6.16-.06,12.31,0,18.47,0a1.44,1.44,0,0,1,1.59,1.46A1.47,1.47,0,0,1,83,74.59Z"/><path d="M73.87,81.8c-3,0-6.06,0-9.09,0-1,0-1.6-.47-1.7-1.26a1.46,1.46,0,0,1,1.6-1.62c2.58,0,5.17,0,7.75,0,3.51,0,7,0,10.54,0,1,0,1.59.46,1.7,1.26s-.58,1.61-1.7,1.62C79.94,81.81,76.91,81.8,73.87,81.8Z"/></svg>