<svg xmlns="http://www.w3.org/2000/svg" width="100" height="100" viewBox="0 0 100 100"><path d="M51.8,98.21a2.33,2.33,0,0,1-.91-2.2c.06-.78,0-1.56,0-2.49h-1c-2.41,0-4.82,0-7.24,0a6.49,6.49,0,0,1-6.88-6.8c0-4.77,0-9.53,0-14.29V71.2c-.42.3-.69.47-.94.67-1.94,1.49-3.88,3-5.8,4.48a1.62,1.62,0,0,1-1.89.37c-.69-.36-.76-1-.76-1.68,0-1.53,0-3.06,0-4.73H25.16c-3.76,0-7.52,0-11.28,0a8.61,8.61,0,0,1-8.8-7.07A8.33,8.33,0,0,1,5,61.74c0-4.67,0-9.34,0-14,0-.81.23-1.43,1.11-1.59a1.37,1.37,0,0,1,1.7,1.48c0,1.38,0,2.76,0,4.14,0,3.19,0,6.39,0,9.58a5.76,5.76,0,0,0,6.11,6.14c4.36,0,8.71,0,13.07,0,1.9,0,2.22.33,2.22,2.26V72.5c.28-.16.47-.23.63-.35,1.89-1.45,3.78-2.9,5.65-4.37A1.91,1.91,0,0,0,36,67a6.45,6.45,0,0,1,6-4.7c1,0,2.06,0,3.21,0V36.4A5.84,5.84,0,0,0,39,30.16q-12.49,0-25,0c-3.81,0-6.19,2.41-6.21,6.23,0,.85,0,1.69,0,2.54a1.32,1.32,0,0,1-1.42,1.41A1.25,1.25,0,0,1,5,38.91a28,28,0,0,1,.21-4.77,8.34,8.34,0,0,1,8.05-6.77c8.84-.07,17.68,0,26.51,0,.53,0,1.05.1,1.68.16V26.44c0-4.48,0-9,0-13.44,0-6.54,4.52-11,11.05-11q9.45,0,18.89,0c1.1,0,1.61.37,1.71,1.2.12,1-.47,1.61-1.66,1.61H52.5a10.73,10.73,0,0,0-2,.16,7.54,7.54,0,0,0-6.28,7.28c-.07,5.33,0,10.66,0,16a1.54,1.54,0,0,0,.51,1A8.79,8.79,0,0,1,48,36.28c0,4.88,0,9.77,0,14.66,0,.67.17,1.1.82,1.24a18.3,18.3,0,0,0,3.47.66c5.42.07,10.85,0,16.27,0,1.57,0,2,.42,2,2v4.8l.92-.66c2.44-1.86,4.86-3.75,7.33-5.58a3.17,3.17,0,0,1,1.62-.55c1.81-.11,3.64,0,5.44-.18a7.44,7.44,0,0,0,6.55-7.31q.08-16.59,0-33.18a7.6,7.6,0,0,0-7.48-7.44c-1.38,0-2.76,0-4.14,0-1,0-1.59-.52-1.57-1.44A1.3,1.3,0,0,1,80.78,2a38.3,38.3,0,0,1,6.62.41,10.13,10.13,0,0,1,7.85,9.81q.07,16.64,0,33.27A10.46,10.46,0,0,1,84.81,55.68c-1.16,0-2.33,0-3.48,0a3,3,0,0,0-1.52.53c-3.16,2.36-6.29,4.77-9.42,7.17a1.6,1.6,0,0,1-1.88.4,1.63,1.63,0,0,1-.78-1.68c0-2.09,0-4.19,0-6.34-6.56-.46-13.12.51-19.65-.65v7.08H60c4.47,0,7.13,2.66,7.14,7.13,0,2,0,4.08,0,6.11,0,1.11-.67,1.67-1.67,1.51s-1.14-.76-1.14-1.57v-6c0-3-1.4-4.35-4.39-4.36h-17c-3,0-4.35,1.39-4.35,4.38V86.34c0,3,1.39,4.36,4.38,4.36h8.65c1.78,0,2.14.35,2.14,2.13,0,.28,0,.56,0,1a4.25,4.25,0,0,0,.6-.29A15.47,15.47,0,0,0,56,92.23a5.48,5.48,0,0,1,4.41-1.57,3.59,3.59,0,0,0,3.94-3.81c0-.79,0-1.57,0-2.35a1.26,1.26,0,0,1,1.37-1.34,1.23,1.23,0,0,1,1.39,1.31,18.94,18.94,0,0,1-.24,4.2,6.16,6.16,0,0,1-6.16,4.81,4.65,4.65,0,0,0-3.3,1.19c-1.44,1.24-3,2.37-4.46,3.54Z"/><path d="M62.77,43.72a11.38,11.38,0,0,1-2.16.55c-2.26.06-4.51,0-6.77,0-1.24,0-1.71-.46-1.71-1.7q0-8.22,0-16.44c0-1.25.45-1.7,1.7-1.71,2.32,0,4.64,0,7,0a9,9,0,0,1,1.71.41c1.82-2.5,4.81-4.41,5.54-7.93.14-.67.15-1.37.25-2a2.91,2.91,0,0,1,2.3-2.53,2.81,2.81,0,0,1,3.09,1.45,10.81,10.81,0,0,1,.78,9.07c-.12.35-.26.7-.39,1.05,0,0,0,.06,0,.22,2.18,0,4.39,0,6.59,0a4.76,4.76,0,0,1,2.13.56,3.26,3.26,0,0,1,1.72,3c0,4.51,0,9,0,13.53a3.57,3.57,0,0,1-3.19,3.59,5.81,5.81,0,0,1-.93.06H67.92A10.25,10.25,0,0,1,62.77,43.72Zm8.41-28.6a3.44,3.44,0,0,0-.14.59,11.49,11.49,0,0,1-3.31,7.47c-1.61,1.76-3.18,3.55-4.73,5.36a1.91,1.91,0,0,0-.46,1.15c0,3.26,0,6.51,0,9.77a1.5,1.5,0,0,0,.49,1,7.09,7.09,0,0,0,4.77,1.66q6.3,0,12.6,0c1.12,0,1.33-.21,1.33-1.3V28.31c0-1.21-.14-1.35-1.36-1.35-2.76,0-5.52,0-8.27,0-1.39,0-2-.92-1.47-2.21.4-1,.86-1.95,1.2-3A8,8,0,0,0,71.18,15.12ZM59.62,41.43V27.34H55V41.43Z"/><path d="M21.63,50.94l.55-3.45c-1.74,0-3.36,0-5,0a1.37,1.37,0,0,1-1.56-1.18c-.16-.93.49-1.61,1.57-1.64.91,0,1.82,0,2.73,0h2.71c.25-1.49.5-2.93.74-4.37,0-.21.06-.43.11-.65.22-.95.82-1.4,1.65-1.26a1.34,1.34,0,0,1,1.11,1.67c-.13,1.06-.33,2.1-.49,3.15-.07.44-.13.87-.22,1.45,1,0,2,0,3,0,.17,0,.43-.39.47-.63.27-1.42.48-2.84.74-4.26.19-1,.79-1.5,1.66-1.35s1.26.84,1.09,1.86l-.72,4.42h2.37c.6,0,1.2,0,1.79,0a1.39,1.39,0,0,1,1.38,1.47,1.34,1.34,0,0,1-1.42,1.32c-1.16,0-2.32,0-3.47,0h-1.1l-.58,3.34a5.4,5.4,0,0,0,.73.11c1.19,0,2.38,0,3.57,0,1.63,0,2.29.42,2.27,1.44s-.66,1.38-2.23,1.38c-1.31,0-2.63,0-3.94,0-.64,0-.95.13-1,.85-.16,1.39-.43,2.78-.69,4.16A1.4,1.4,0,0,1,27.72,60a1.44,1.44,0,0,1-1-1.82c.22-1.39.45-2.78.66-4.17,0,0,0-.11-.07-.23H24c-.27,1.55-.54,3.11-.8,4.68-.19,1.15-.79,1.7-1.69,1.55s-1.29-.88-1.09-2c.22-1.35.45-2.71.71-4.25H17.78c-1.52,0-2.19-.46-2.17-1.45s.67-1.36,2.15-1.37Zm6.82-3.45c-1.07,0-2,0-3,0a.57.57,0,0,0-.44.35c-.2,1-.34,2-.51,3h3.38Z"/><path d="M59.52,76.75a6,6,0,0,1-2.05,4.77,54,54,0,0,1-5.36,3.74,1.56,1.56,0,0,1-1.32,0,17.82,17.82,0,0,1-5.71-4A6.58,6.58,0,0,1,43.54,75,5,5,0,0,1,50.93,72a1.09,1.09,0,0,0,.88.05A5.12,5.12,0,0,1,59.52,76.75Zm-2.82,0a2.44,2.44,0,0,0-1.58-2.52c-1-.35-1.65-.09-2.51,1.05-.72,1-1.74.88-2.51-.24a2,2,0,0,0-2-.94,2,2,0,0,0-1.76,1.48,3.53,3.53,0,0,0,1,3.88,34.36,34.36,0,0,0,3.76,2.77.83.83,0,0,0,.75,0,44.85,44.85,0,0,0,3.64-2.63A3.65,3.65,0,0,0,56.7,76.76Z"/></svg>