<svg xmlns="http://www.w3.org/2000/svg" width="100" height="100" viewBox="0 0 100 100"><path d="M1.79,25.85A2.91,2.91,0,0,1,4.9,24.13c1.66.08,3.34-.14,5,.07,1.38.17,3.86-1.11,3.86,1.33s-2.51,1.22-3.92,1.39a43.88,43.88,0,0,1-5.14,0V93.33H44.59V88H43.52c-5.07,0-10.15,0-15.22,0a3.21,3.21,0,0,1-3.44-2.2c-.07-.21-.57-.38-.88-.38-4.07,0-8.14,0-12.22,0a7.85,7.85,0,0,1-.84,0A1.43,1.43,0,0,1,9.5,83.94,1.39,1.39,0,0,1,11,82.6c3.16,0,6.32,0,9.49,0h4.19v-3.9H11.09A1.42,1.42,0,0,1,9.5,77.33,1.46,1.46,0,0,1,11,75.87c.22,0,.44,0,.66,0h8c1.6,0,3.19,0,4.79,0a1.75,1.75,0,0,0,1.1-.48,3.56,3.56,0,0,1,2.67-.93H44.61V69.7A18,18,0,0,1,42,69C40,68.16,38,67.17,35.91,66.26a4.39,4.39,0,0,0-1.65-.48c-7.87,0-15.73,0-23.59,0-2.35,0-3.08-.73-3.08-3.09V44.34c0-2.08.83-2.9,2.9-2.9h28c2.46,0,3.09.61,3.2,3.07a2.9,2.9,0,0,0,.06.43c.84-.18,1.67-.33,2.47-.55a.79.79,0,0,0,.42-.59c0-5.57,0-11.14,0-16.83H20a4.37,4.37,0,0,1-1,0,1.4,1.4,0,0,1,.12-2.76,6.26,6.26,0,0,1,.75,0H44.58c2.09,0,2.9.81,2.9,2.89q0,7.89,0,15.78V44c.75,0,1.46,0,2.16,0A23.27,23.27,0,0,1,68.82,55.51a2.58,2.58,0,0,1,0,3C64.1,65.93,57.35,69.73,48.58,70c-.31,0-.62,0-1,0v4.45h1.17c7.52,0,15,0,22.56,0a9.71,9.71,0,0,1,4.94,1.25c2,1.15,4.11,2.26,6.18,3.37a2.25,2.25,0,0,1,0,4.29c-2.07,1.12-4.14,2.23-6.18,3.38a10.07,10.07,0,0,1-5,1.28c-7.49,0-15,0-22.46,0H47.55c0,.33-.06.6-.06.87,0,1.63,0,3.26,0,4.88a2.3,2.3,0,0,1-2.4,2.45h-.65c-13.19,0-26.38,0-39.57,0a2.9,2.9,0,0,1-3.07-1.78ZM31.57,62.9c-1.07-1.5-2.1-2.91-3.11-4.33a2.61,2.61,0,0,1,0-3.15,23.53,23.53,0,0,1,9.23-8.72c1.41-.75,1.43-.77,1.09-2.36H10.48V62.9Zm17-16.14a20.83,20.83,0,0,0-17.3,9.47,1.14,1.14,0,0,0,0,1.48c8,12.57,26.83,12.55,34.78,0a1.1,1.1,0,0,0,0-1.41C61.8,50.11,56,47,48.55,46.76ZM70,77.34H36.58V79.8H56.9a4.83,4.83,0,0,1,.85,0A1.33,1.33,0,0,1,59,81.22a1.31,1.31,0,0,1-1.26,1.38,6,6,0,0,1-.85,0H36.6V85.1H69.94V82.62H68.87c-1.56,0-3.13,0-4.69,0a1.33,1.33,0,0,1-1.37-1.37,1.39,1.39,0,0,1,1.33-1.42c.34,0,.69,0,1,0H70Zm-36.29-.06c-1.91,0-3.78,0-5.64,0-.15,0-.41.36-.42.56q0,3.38,0,6.75c0,.19.29.54.44.54,1.87,0,3.73,0,5.62,0Zm39.2,7.89c.89-.42,1.7-.74,2.43-1.18a1.32,1.32,0,0,0,.53-.92c.06-1.25,0-2.5,0-3.76,0-.24-.08-.62-.25-.72-.85-.47-1.73-.87-2.72-1.34Zm5.85-3,1.73-.94-1.73-.93Z"/><path d="M77.91,38.72h3.14c0-.13.12-.22.11-.3-.27-1.71.61-2.6,2-3.51a11.46,11.46,0,0,0,4.69-12.37c-.1-.41-.24-1,0-1.25a2.3,2.3,0,0,1,1.37-.88c.76-.11,1.15.51,1.33,1.2a14.49,14.49,0,0,1-5.86,15.76c-.85.59-.83,1.16-.15,2a3.21,3.21,0,0,1,.75,1.73c.09,2.1,0,4.2,0,6.3a2.24,2.24,0,0,1-2.38,2.34c-.62,0-1.24,0-1.95,0,0,.71,0,1.33,0,1.95a2.36,2.36,0,0,1-2.34,2.44c-1.37.06-2.76.06-4.13,0a2.37,2.37,0,0,1-2.39-2.49c0-.59,0-1.18,0-1.91H70.15a2.23,2.23,0,0,1-2.43-2.38c0-2.07-.07-4.14,0-6.2a3.42,3.42,0,0,1,.78-1.81c.59-.75.62-1.39-.16-1.93a14.44,14.44,0,0,1,6.15-26.31,14,14,0,0,1,11.72,3.64c.86.77,1,1.63.41,2.28s-1.43.56-2.31-.2A11.69,11.69,0,0,0,65,23.07,11.45,11.45,0,0,0,70,35c1.3.84,2.1,1.7,1.82,3.3a1.26,1.26,0,0,0,.08.41h3.22c0-1.81,0-3.61,0-5.41,0-.17-.26-.39-.45-.5a4,4,0,0,1-2.14-3.7c0-.94,0-1.88,0-2.82a4,4,0,0,1,8-.26,28.7,28.7,0,0,1,0,3.47,3.92,3.92,0,0,1-2,3.29c-.22.12-.51.36-.51.55C77.89,35.11,77.91,36.89,77.91,38.72Zm4.5,2.93H70.6v5.18H82.41ZM77.68,27.81h0c0-.5,0-1,0-1.5a1.13,1.13,0,0,0-1.19-1.18A1.1,1.1,0,0,0,75.3,26.3c0,1,0,2,0,3a1.06,1.06,0,0,0,1.12,1.12,1.1,1.1,0,0,0,1.24-1.11A14.79,14.79,0,0,0,77.68,27.81ZM74.92,51.22h3.13V49.76H74.92Z"/><path d="M24.61,69.22h13c.31,0,.7-.1.92,0a2.85,2.85,0,0,1,1.13,1.16,1.15,1.15,0,0,1-.84,1.47,3.75,3.75,0,0,1-1.11.13H11.48a3.54,3.54,0,0,1-.56,0A1.43,1.43,0,0,1,9.5,70.57,1.39,1.39,0,0,1,11,69.23c2.13,0,4.26,0,6.38,0Z"/><path d="M24.64,33.73H31.5c1,0,1.66.5,1.68,1.35s-.6,1.46-1.68,1.46q-6.85,0-13.72,0c-1.06,0-1.72-.59-1.69-1.46s.66-1.35,1.69-1.35Z"/><path d="M60.81,19.93c0,1.25-.82,1.93-1.72,1.71a20.36,20.36,0,0,1-2.4-.78,1.34,1.34,0,0,1-.82-1.75,1.36,1.36,0,0,1,1.73-.88,11.32,11.32,0,0,1,2.22.73A4.15,4.15,0,0,1,60.81,19.93Z"/><path d="M59,37.67c-.54-.51-1.13-.82-1.27-1.28a1.67,1.67,0,0,1,.42-1.46,7.74,7.74,0,0,1,2.41-1.39,1.76,1.76,0,0,1,1.52.45,1.55,1.55,0,0,1,.1,1.48A31.9,31.9,0,0,1,59,37.67Z"/><path d="M92.2,19.82a3.54,3.54,0,0,1,.9-.84,12.16,12.16,0,0,1,2.3-.76,1.39,1.39,0,0,1,.93,2.61,16.83,16.83,0,0,1-2.49.81C92.91,21.87,92.1,21.1,92.2,19.82Z"/><path d="M70.84,9.49c-.49.47-.85,1.07-1.31,1.16A1.77,1.77,0,0,1,68,10.11,7.28,7.28,0,0,1,66.9,7.57a1.76,1.76,0,0,1,.62-1.47A1.55,1.55,0,0,1,69,6.17,27.5,27.5,0,0,1,70.84,9.49Z"/><path d="M84.56,5.84c1.1,0,1.83.85,1.56,1.66a14.49,14.49,0,0,1-1.18,2.64,1.22,1.22,0,0,1-1.62.53,1.24,1.24,0,0,1-.86-1.56A13.5,13.5,0,0,1,83.69,6.4C83.87,6.08,84.37,6,84.56,5.84Z"/><path d="M93.14,12.08a4.73,4.73,0,0,1-.56,1.11,20.06,20.06,0,0,1-1.88,1.69,1.35,1.35,0,0,1-1.92-.2,1.29,1.29,0,0,1,.07-1.86,11,11,0,0,1,1.89-1.66A1.85,1.85,0,0,1,92.2,11C92.58,11.17,92.82,11.7,93.14,12.08Z"/><path d="M56.51,29.38A1.44,1.44,0,0,1,55,28.1a1.36,1.36,0,0,1,1.21-1.51,21.82,21.82,0,0,1,2.42-.26,1.29,1.29,0,0,1,1.45,1.16,1.3,1.3,0,0,1-1.11,1.57C58.12,29.22,57.28,29.28,56.51,29.38Z"/><path d="M91.93,33.12A31.81,31.81,0,0,1,95.1,35.3,1.53,1.53,0,0,1,95,36.78a1.78,1.78,0,0,1-1.53.45A10.48,10.48,0,0,1,91,35.85a1.13,1.13,0,0,1-.38-1.57A6.78,6.78,0,0,1,91.93,33.12Z"/><path d="M77.88,6.65a8.17,8.17,0,0,1,0,1.31,1.29,1.29,0,0,1-1.42,1.2,1.26,1.26,0,0,1-1.34-1.28,19.26,19.26,0,0,1,0-2.52,1.3,1.3,0,0,1,1.33-1.3,1.32,1.32,0,0,1,1.44,1.2,9.2,9.2,0,0,1,0,1.39Z"/><path d="M95.06,26.37c.56.07,1.12.12,1.67.21A1.4,1.4,0,0,1,98,28.13a1.44,1.44,0,0,1-1.61,1.24q-1-.07-2-.24c-1-.16-1.53-.71-1.45-1.58s.73-1.29,1.78-1.2l.37,0Z"/><path d="M64.61,14c-.23.29-.45.81-.83,1a1.64,1.64,0,0,1-1.39-.05,8.15,8.15,0,0,1-2.06-1.86,1.72,1.72,0,0,1,0-1.59c.25-.36,1.19-.71,1.47-.52a20.43,20.43,0,0,1,2.63,2.31C64.52,13.37,64.51,13.61,64.61,14Z"/><path d="M56.94,57.12a8.34,8.34,0,1,1-8.13-8.5A8.32,8.32,0,0,1,56.94,57.12ZM53.36,59.6c-4.38-.38-7-2.7-8.18-6.85a5.28,5.28,0,0,0-1.9,5.71,5.53,5.53,0,0,0,4.79,4A5.3,5.3,0,0,0,53.36,59.6Zm.65-3c.16-2.91-3.14-5.69-6-5C47.84,54.48,51,57.16,54,56.6Z"/></svg>